<?xml version="1.0" encoding="utf-8"?>
<!-- Generator: Adobe Illustrator 18.1.1, SVG Export Plug-In . SVG Version: 6.00 Build 0)  -->
<svg version="1.1" id="Layer_1" xmlns="http://www.w3.org/2000/svg" xmlns:xlink="http://www.w3.org/1999/xlink" x="0px" y="0px"
	 viewBox="0 0 93 93" enable-background="new 0 0 93 93" xml:space="preserve">
<circle fill="#FFFFFF" stroke="#8168DF" stroke-width="4" stroke-miterlimit="10" cx="46.5" cy="46.5" r="44.5"/>
<g>
	<g>
		<g>
			<polyline fill="#CC2E43" points="47.4,72.7 65.2,72.4 54,24.3 48.1,28.8 45.6,28.8 			"/>
		</g>
		<g>
			<path fill="#EC5569" d="M45.7,28.7h-3.2c-1.8-1.4-3.6-2.9-5.4-4.4l-4.8,48.6l15.2-0.2"/>
		</g>
	</g>
	<g>
		<path fill="#EC5569" d="M39.9,78.8L39,81.7l-7.6,0.5c0.2-0.6,0.5-1.3,0.7-1.9c1.5-0.6,3.2-1.1,4.7-1.6"/>
	</g>
	<g>
		<polyline fill="#697C86" points="36.7,78.7 36.5,67.5 43.6,67.5 39.9,78.8 		"/>
	</g>
	<g>
		<polyline fill="#697C86" points="35.1,47.3 25.8,39.9 27.7,39.9 32.3,39.4 35.9,43.5 		"/>
	</g>
	<g>
		<path fill="#697C86" d="M35.9,43.5c0.4-0.1,0.6-0.4,0.9-0.5c0.5,0,1.1,0,1.5,0c0.2,0.4,0.5,0.7,0.7,1.1c0,1.9,0,3.8,0,5.6
			c-0.8-0.1-1.5-0.2-2.4-0.2c-0.6-0.7-1.1-1.5-1.6-2.2"/>
	</g>
	<g>
		<polyline fill="#CC2E43" points="59.2,79.4 61.7,82.6 54.4,82.6 56.4,79.4 		"/>
	</g>
	<g>
		<polyline fill="#465A61" points="56.4,79.4 51.3,66.8 52.5,66.8 57.3,66.6 58.4,66.6 59.2,79.4 		"/>
	</g>
	<g>
		<path fill="#231F20" d="M45.2,48.7c-3.5,0-5.9-1.1-6-1.1l0.2-0.5c0.1,0,6.4,2.8,13.4-0.8l0.2,0.5C50.1,48.3,47.4,48.7,45.2,48.7z"
			/>
	</g>
	<g>
		<polygon points="48.4,29.3 42.5,29.3 39.6,27.3 39.8,26.8 42.6,28.7 48.3,28.7 53.9,24.3 54.3,24.7 		"/>
	</g>
	<g>
		<path fill="#465A61" d="M57,48.1c0,0-1.9,2.9-3.3,1.5c-0.2-1.2-0.5-2.2-0.7-3.4c0-1.2,0-2.2,0.1-3.4c1.2,0.2,2.4,0.5,3.5,0.7"/>
	</g>
	<g>
		<path fill="#465A61" d="M56.6,43.6c0.4-0.9,0.6-1.9,0.9-2.9c0.7-0.8,1.5-1.5,2.2-2.4l5.5,0.7c0.6,0,1.3-0.1,1.9-0.1
			C63.8,42,60.4,45,57,48.1"/>
	</g>
	<g>
		<path fill="#FF7816" d="M42.1,22.2h8.7l-0.5-10.1c0-0.9-0.8-1.6-1.6-1.6h-5.6c-0.8,0-1.6,0.7-1.6,1.5l-0.9,8.4
			C40.4,21.4,41.2,22.2,42.1,22.2z"/>
	</g>
	<g>
		<path fill="#FF9F00" d="M45.7,10.5v11.7h-3.5c-1.1,0-1.8-0.8-1.6-1.9l0.9-8.4c0.1-0.8,0.8-1.5,1.6-1.5h2.6V10.5z"/>
	</g>
	<g>
		<polygon fill="#FFFFFF" points="47.2,16.7 45.6,14.3 41.2,14.3 41.2,13.1 46.3,13.1 48.3,16 		"/>
	</g>
	<g>
		<polygon fill="#CC2E43" points="48.4,29.3 45.7,29.3 45.7,28.7 48.3,28.7 53.9,24.3 54.3,24.7 		"/>
	</g>
	<g>
		<polygon fill="#EC5569" points="45.7,29.3 42.5,29.3 39.6,27.3 39.8,26.8 42.6,28.7 45.7,28.7 		"/>
	</g>
	<g>
		<g>
			<path fill="#FF9F00" d="M65.3,36.2v2.9l-5.5-0.7v-1.3l-3.5-0.8L53,32.8c0,2.6,0,5.2,0,7.9c0,2,0,4-0.1,6c0.6,2.2,1.2,4.5,1.8,6.7
				c0.6,2.5,1.2,5.1,1.8,7.5c0.2,1.9,0.5,3.9,0.8,5.8l-5.1,0.1c-1.2-2-2-4-3.2-6c-0.6-2.1-1.3-4.4-1.9-6.5h-1.2l-0.4-32.1h4.2
				l0.1,1.9c1.3,0.1,2.7,0.2,4,0.4c2.2,1.2,4.5,2.4,6.7,3.5C62.2,30.7,63.8,33.4,65.3,36.2z"/>
		</g>
		<g>
			<path fill="#FFD400" d="M46,54.3c-0.2,1.2-0.4,2.1-0.5,2.7c-0.8,4.6-1.4,7.9-1.6,8.7c-0.1,0.8-0.2,1.4-0.4,1.8h-7.1V66
				c0.4-0.9,0.8-1.8,1.2-2.7c0.5-4.1,1.1-8.1,1.5-12.2c0.1-1.3,0.1-2.5,0.2-3.8c-1.4-4.8-2.8-9.6-4.2-14.5l-2.8,6.4l-4.6,0.6
				c-0.1-0.6-0.4-1.3-0.5-1.9c0.2-0.8,0.4-1.8,0.6-2.6c1.4-2.9,2.7-5.8,4.1-8.7c1.8-0.7,3.5-1.4,5.3-2.2l5.1-0.5l0.1-1.6h3.3
				L46,54.3z"/>
		</g>
	</g>
	<g>
		<polygon fill="#CC2E43" points="48.4,29.3 45.7,29.3 45.7,28.7 48.3,28.7 53.9,24.3 54.3,24.7 		"/>
	</g>
	<g>
		<polygon fill="#CC2E43" points="45.7,29.3 42.4,29.3 37,24.8 37.3,24.4 42.6,28.7 45.7,28.7 		"/>
	</g>
	<g>
		<g>
			<path fill="#EC5569" d="M45.9,48.4c-0.4,0-0.6,0-0.6,0c-0.8,0-1.4-0.1-1.8-0.1c-0.8-0.1-2.4-0.4-4.1-0.9
				c-0.2-0.7-0.5-1.5-0.7-2.2c0.9,0.6,2.6,1.5,4.9,1.9c0.2,0,1.2,0.1,2.2,0L45.9,48.4z"/>
		</g>
		<g>
			<path fill="#CC2E43" d="M53,44.2c0,0.8,0,1.6,0,2.5c-2.4,0.9-4.2,1.5-5.2,1.6c-0.9,0.2-1.9,0.2-1.9,0.2v-1.3
				C49.2,46.9,51.7,45.1,53,44.2z"/>
		</g>
	</g>
	<g>
		<ellipse fill="#EC5569" cx="45.9" cy="47.7" rx="1.2" ry="1.6"/>
	</g>
	<g>
		<g>
			<g>
				<ellipse fill="#EC5569" cx="45.9" cy="47.6" rx="1.2" ry="1.6"/>
			</g>
			<g>
				<path fill="#CC2E43" d="M45.9,46c0.6,0,1.2,0.7,1.2,1.6s-0.5,1.6-1.2,1.6"/>
			</g>
		</g>
	</g>
</g>
</svg>
