<?xml version="1.0" encoding="utf-8"?>
<!-- Generator: Adobe Illustrator 18.1.1, SVG Export Plug-In . SVG Version: 6.00 Build 0)  -->
<svg version="1.1" id="Layer_1" xmlns="http://www.w3.org/2000/svg" xmlns:xlink="http://www.w3.org/1999/xlink" x="0px" y="0px"
	 viewBox="0 0 93 93" enable-background="new 0 0 93 93" xml:space="preserve">
<circle fill="#FFFFFF" stroke="#8168DF" stroke-width="4" stroke-miterlimit="10" cx="46.5" cy="46.5" r="44.3"/>
<g>
	<path fill="#465A61" d="M68.7,27.7c0,0-21.6-8.3-22.2-8.6c-0.5,0.1-22.2,8.6-22.2,8.6v15.7c0,10.9,3,25,22.2,30.2
		c19-5.3,22-19.7,22-30.2C68.7,38.1,68.7,27.7,68.7,27.7z"/>
	<path fill="#697C86" d="M24.3,43.5c0,10.9,3,25,22.2,30.2V19.3c-0.8,0.4-22.2,8.6-22.2,8.6V43.5z"/>
	<path fill="#FF7816" d="M64.3,30.7c0,0-17.3-7-17.8-7.1c-0.4,0.1-17.9,6.9-17.8,6.8v13.2c0,9.1,1.8,21.6,17.8,25.9
		C62.4,65,64.3,52.4,64.3,43.6C64.3,39,64.3,30.7,64.3,30.7z"/>
	<path fill="#FF9F00" d="M46.5,23.5c-0.4,0.1-17.9,6.9-17.8,6.8v13.2c0,9.1,1.8,21.6,17.8,25.9V23.5z"/>
	<path fill="#FFD400" d="M54.6,45.2c0,4.5-3.6,8.1-8.1,8.1l0,0c-4.5,0-8.1-3.6-8.1-8.1s3.6-8.1,8.1-8.1l0,0
		C51,37.1,54.6,40.8,54.6,45.2z"/>
	<path fill="#FF9F00" d="M54.6,45.2c0,4.5-3.6,8.1-8.1,8.1V37.1C51,37.1,54.6,40.8,54.6,45.2z"/>
	<path fill="#EC5569" d="M50.1,44l-3.6,3.6l-0.8,0.8c-0.2,0.2-0.5,0.2-0.7,0.2c-0.2,0-0.5-0.1-0.7-0.2l-1.6-1.6
		c-0.4-0.4-0.4-0.9,0-1.3s0.9-0.4,1.3,0l1.1,1.1l3.8-3.8c0.4-0.4,0.9-0.4,1.3,0C50.5,43.1,50.5,43.7,50.1,44z"/>
	<path fill="#CC2E43" d="M50.1,44l-3.6,3.6V45l2.3-2.3c0.4-0.4,0.9-0.4,1.3,0C50.5,43.1,50.5,43.7,50.1,44z"/>
</g>
</svg>
