<?xml version="1.0" encoding="utf-8"?>
<!-- Generator: Adobe Illustrator 18.1.1, SVG Export Plug-In . SVG Version: 6.00 Build 0)  -->
<svg version="1.1" id="Layer_1" xmlns="http://www.w3.org/2000/svg" xmlns:xlink="http://www.w3.org/1999/xlink" x="0px" y="0px"
	 viewBox="0 0 93 93" enable-background="new 0 0 93 93" xml:space="preserve">
<circle fill="#FFFFFF" cx="46.5" cy="46.5" r="42.5"/>
<circle fill="none" stroke="#8168DF" stroke-width="4" cx="46.5" cy="46.5" r="44.5"/>
<g id="award" transform="translate(2233 955)">
	<path id="Path_1263" fill="#FF7816" d="M-2164.4-935h-4.5l-3.2,3.1h7.7c0.9,0,1.6,0.7,1.6,1.6v2.4c0,6-3.8,11.3-9.5,13.2l-2.2,0.7
		c-0.8,0.3-1.3,1.2-1,2c0.2,0.6,0.8,1.1,1.5,1.1c0.2,0,0.3,0,0.5-0.1l2.2-0.7c7-2.3,11.6-8.8,11.6-16.2v-2.4
		C-2159.7-932.9-2161.8-935-2164.4-935z"/>
	<path id="Path_1264" fill="#FF9F00" d="M-2198.2-914l-2.2-0.7c-5.7-1.9-9.5-7.2-9.5-13.2v-2.4c0-0.9,0.7-1.6,1.6-1.6h8.1l-3.6-3.1
		h-4.5c-2.6,0-4.7,2.1-4.7,4.7v2.4c0,7.3,4.7,13.8,11.6,16.2l2.2,0.7c0.2,0.1,0.3,0.1,0.5,0.1c0.9,0,1.6-0.7,1.6-1.6
		C-2197.1-913.2-2197.5-913.8-2198.2-914z"/>
	<path id="Path_1265" fill="#FFD400" d="M-2181.6-904.5v2.3c0,0.9,0.7,1.6,1.5,1.6c0,0,0,0,0,0c2.6,0,4.7,2.1,4.7,4.7c0,0,0,0,0,0
		v3.1c0,0.9-0.7,1.6-1.5,1.6c0,0,0,0,0,0h-18.9c-0.9,0-1.6-0.7-1.6-1.5c0,0,0,0,0,0v-3.1c0-2.6,2.1-4.7,4.7-4.7c0,0,0,0,0,0
		c0.9,0,1.6-0.7,1.6-1.5c0,0,0,0,0,0v-2.3c-5.8-1.9-10-7-10.7-13.1l-1.9-17.4h34.9l-1.9,17.4
		C-2171.5-911.5-2175.7-906.4-2181.6-904.5L-2181.6-904.5z"/>
	<path id="Path_1266" fill="#FF9F00" d="M-2176.9-891.3h-9.5V-935h17.5l-1.9,17.4c-0.7,6.1-4.9,11.2-10.7,13.1v2.3
		c0,0.9,0.7,1.6,1.5,1.6c0,0,0,0,0,0c2.6,0,4.7,2.1,4.7,4.7c0,0,0,0,0,0v3.1C-2175.3-892-2176-891.3-2176.9-891.3
		C-2176.9-891.3-2176.9-891.3-2176.9-891.3L-2176.9-891.3z"/>
	<path id="Path_1267" fill="#FF9F00" d="M-2178.6-923.2c-0.2-0.6-0.7-1-1.3-1.1l-3.5-0.5l-1.6-3.1c-0.5-0.8-1.5-1-2.3-0.5
		c-0.2,0.1-0.4,0.3-0.5,0.5l-1.6,3.1l-3.5,0.5c-0.9,0.1-1.4,0.9-1.3,1.7c0,0.4,0.2,0.7,0.5,0.9l2.5,2.4l-0.6,3.4
		c-0.1,0.6,0.1,1.2,0.6,1.5c0.5,0.3,1.1,0.4,1.6,0.1l3.2-1.6l3.2,1.6c0.5,0.3,1.2,0.2,1.6-0.1c0.5-0.4,0.7-0.9,0.6-1.5l-0.6-3.4
		l2.5-2.4C-2178.6-922-2178.4-922.7-2178.6-923.2z"/>
	<path id="Path_1268" fill="#EC5569" d="M-2172.2-892.8v9.5h-28.3v-9.5c0-0.9,0.7-1.6,1.5-1.6c0,0,0,0,0,0h25.2
		C-2172.9-894.4-2172.2-893.7-2172.2-892.8C-2172.2-892.9-2172.2-892.8-2172.2-892.8z"/>
	<path id="Path_1269" fill="#FF7816" d="M-2183.2-914.2l-3.2-1.6v-12.9c0.6,0,1.1,0.3,1.4,0.8l1.6,3.1l3.5,0.5
		c0.9,0.1,1.4,0.9,1.3,1.7c0,0.4-0.2,0.7-0.5,0.9l-2.5,2.4l0.6,3.4c0.1,0.6-0.1,1.2-0.6,1.5C-2182-914-2182.7-913.9-2183.2-914.2
		L-2183.2-914.2z"/>
	<path id="Path_1270" fill="#CC2E43" d="M-2172.2-892.8v9.5h-14.2v-11h12.6C-2172.9-894.4-2172.2-893.7-2172.2-892.8
		C-2172.2-892.9-2172.2-892.8-2172.2-892.8z"/>
	<path id="Path_1271" fill="#697C86" d="M-2169.1-883.3c0,0.9-0.7,1.6-1.5,1.6c0,0,0,0,0,0h-31.4c-0.9,0-1.5-0.7-1.5-1.6
		c0-0.8,0.7-1.5,1.5-1.5h31.4C-2169.8-884.8-2169.1-884.1-2169.1-883.3C-2169.1-883.3-2169.1-883.3-2169.1-883.3z"/>
	<path id="Path_1272" fill="#465A61" d="M-2169.1-883.3c0,0.9-0.7,1.6-1.5,1.6c0,0,0,0,0,0h-15.7v-3.1h15.7
		C-2169.8-884.8-2169.1-884.1-2169.1-883.3C-2169.1-883.3-2169.1-883.3-2169.1-883.3z"/>
</g>
</svg>
