<svg xmlns="http://www.w3.org/2000/svg" width="19" height="25" viewBox="0 0 19 25"><g><g><path fill="#fff" d="M18.035 22.284c0 .634-.516 1.15-1.15 1.15H1.855c-.634 0-1.15-.516-1.15-1.15V3.873c0-.634.516-1.151 1.15-1.151h3.03v.4c0 .135.014.272.042.398H2.23c-.4 0-.728.33-.728.728v17.66c0 .4.329.728.728.728h14.278c.399 0 .728-.329.728-.728V4.248c0-.399-.329-.728-.728-.728h-2.696c.028-.126.042-.263.042-.399v-.399h3.03c.634 0 1.15.517 1.15 1.15zM5.59 1.994c0-.014.01-.023.024-.023h7.514c.014 0 .024.009.024.023v1.127c0 .634-.517 1.15-1.151 1.15H6.74c-.634 0-1.15-.516-1.15-1.15zm2.63-.751c0-.221.179-.4.4-.4h1.502c.221 0 .4.179.4.4v.023H8.219zm8.29 2.982c.014 0 .023.01.023.023v17.66c0 .014-.01.023-.023.023H2.23c-.014 0-.024-.009-.024-.023V4.248c0-.014.01-.023.024-.023h3.02a1.85 1.85 0 0 0 1.489.751H12c.61 0 1.15-.295 1.489-.751h3.02zm-2.654-2.207v-.024c0-.4-.329-.728-.728-.728h-1.902v-.023c0-.611-.493-1.104-1.104-1.104H8.618c-.61 0-1.103.493-1.103 1.104v.023H5.613c-.4 0-.728.329-.728.728v.024h-3.03A1.856 1.856 0 0 0 0 3.873v18.41c0 1.025.831 1.856 1.855 1.856h15.03a1.856 1.856 0 0 0 1.855-1.855V3.873a1.856 1.856 0 0 0-1.855-1.855z"/></g></g></svg>