<?xml version="1.0" encoding="utf-8"?>
<!-- Generator: Adobe Illustrator 18.1.1, SVG Export Plug-In . SVG Version: 6.00 Build 0)  -->
<svg version="1.1" id="Layer_1" xmlns="http://www.w3.org/2000/svg" xmlns:xlink="http://www.w3.org/1999/xlink" x="0px" y="0px"
	 viewBox="0 0 93 93" enable-background="new 0 0 93 93" xml:space="preserve">
<circle fill="#FFFFFF" stroke="#8168DF" stroke-width="4" stroke-miterlimit="10" cx="46.5" cy="46.5" r="44.4"/>
<g>
	<g>
		<polyline fill="none" stroke="#465A61" stroke-linecap="round" stroke-miterlimit="10" points="59.3,48.6 63.1,41 66.8,33.3 
			70.5,41 74.2,48.6 		"/>
		<rect x="25.2" y="44.5" fill="#CC2E43" width="3.8" height="3.3"/>
		<rect x="29.5" y="45.6" fill="#EC5569" width="1.7" height="2.4"/>
		<rect x="20.9" y="46.3" fill="#EC5569" width="3.6" height="1.7"/>
		<polyline fill="none" stroke="#465A61" stroke-linecap="round" stroke-miterlimit="10" points="19.2,48.6 22.9,41 26.5,33.3 
			30.2,41 33.9,48.6 		"/>
		<path fill="#465A61" d="M34.8,48.6c-1,3.7-4.5,6.5-8.5,6.5s-7.5-2.8-8.5-6.5H34.8z"/>
		<path fill="#697C86" d="M20.2,49.2h-1.4c0,0,1.2,4.2,5.9,5.2C24.7,54.2,20.4,52.3,20.2,49.2z"/>
		<circle fill="#FFD400" cx="46.7" cy="25.6" r="4.8"/>
		<path fill="#FF9F00" d="M46.7,20.8c2.7,0,4.8,2.2,4.8,4.8s-2.2,4.8-4.8,4.8"/>
		<path fill="#FF9F00" d="M67.4,35.1H26.1c-1,0-1.8-0.8-1.8-1.8l0,0c0-1,0.8-1.8,1.8-1.8h41.3c1,0,1.8,0.8,1.8,1.8l0,0
			C69.2,34.3,68.4,35.1,67.4,35.1z"/>
		<rect x="40.8" y="34.5" fill="#FF9F00" width="11.9" height="15.3"/>
		<rect x="46.7" y="34.5" fill="#FF7816" width="6" height="15.3"/>
		<path fill="#FF7816" d="M50,72.2L50,72.2c-1.5,0-2.8-1.3-2.8-2.8V48.3h5.5v21.1C52.7,71,51.5,72.2,50,72.2z"/>
		<path fill="#FF9F00" d="M43.6,72.2L43.6,72.2c-1.5,0-2.8-1.3-2.8-2.8V48.3h5.5v21.1C46.3,71,45.1,72.2,43.6,72.2z"/>
		<rect x="65.4" y="44.5" fill="#CC2E43" width="3.8" height="3.3"/>
		<rect x="69.8" y="45.6" fill="#EC5569" width="1.7" height="2.4"/>
		<rect x="61.2" y="46.3" fill="#EC5569" width="3.6" height="1.7"/>
		<path fill="#465A61" d="M75.1,48.6c-1,3.7-4.5,6.5-8.5,6.5s-7.5-2.8-8.5-6.5H75.1z"/>
		<path fill="#697C86" d="M60.3,49.2H59c0,0,1.2,4.2,5.9,5.2C65,54.2,60.7,52.3,60.3,49.2z"/>
		<path fill="#FF7816" d="M67.4,35.1H46.7v-3.6h20.7c1,0,1.8,0.8,1.8,1.8l0,0C69.2,34.3,68.4,35.1,67.4,35.1z"/>
	</g>
	<g>
		<path fill="#EC5569" d="M48.5,44.5c-0.7,0.8-1.3,1.6-2,2.4c-0.7-0.8-1.3-1.6-2-2.4c0.3-2.8,0.8-5.5,1.2-8.2h1.6L48.5,44.5z"/>
		<path fill="#CC2E43" d="M46.5,36.2c0.2,0,0.6,0,0.8,0c0.3,2.8,0.8,5.5,1.2,8.2c-0.7,0.8-1.3,1.6-2,2.4"/>
		<path fill="#EC5569" d="M47.7,35.3c-0.1,0.1-0.5,0.5-1.2,0.5c-0.6,0-1-0.3-1.2-0.5c0.1-0.5,0.2-1,0.3-1.5h1.5L47.7,35.3z"/>
		<path fill="#CC2E43" d="M46.5,33.7c0.2,0,0.5,0,0.7,0c0.1,0.5,0.2,1,0.5,1.5c-0.1,0.1-0.5,0.5-1.2,0.5"/>
	</g>
</g>
</svg>
