<svg xmlns="http://www.w3.org/2000/svg" width="816.31" height="147.693" viewBox="0 0 816.31 147.693">
  <g id="Group_366" data-name="Group 366" transform="translate(-438 -419.1)">
    <g id="Group_339" data-name="Group 339" transform="translate(452.25 550.792)">
      <text id="Create_Groups" data-name="Create Groups" transform="translate(0 12)" fill="#fff" font-size="10" font-family="Blokletters-Balpen, Blokletters Balpen"><tspan x="0" y="0">Create Groups</tspan></text>
    </g>
    <g id="Group_340" data-name="Group 340" transform="translate(837.026 552.792)">
      <text id="Assements" transform="translate(0 10)" fill="#fff" font-size="9" font-family="Blokletters-Balpen, Blokletters Balpen"><tspan x="0" y="0">Assements</tspan></text>
    </g>
    <g id="Group_341" data-name="Group 341" transform="translate(1005.76 552.792)">
      <text id="Analytics" transform="translate(0 10)" fill="#fff" font-size="9" font-family="Blokletters-Balpen, Blokletters Balpen"><tspan x="0" y="0">Analytics</tspan></text>
    </g>
    <g id="Group_342" data-name="Group 342" transform="translate(1152.31 550.792)">
      <g id="Group">
        <text id="Find_your_best_fit" data-name="Find your best fit" transform="translate(0 12)" fill="#fff" font-size="10" font-family="Blokletters-Balpen, Blokletters Balpen"><tspan x="0" y="0">Find your best fit</tspan></text>
      </g>
    </g>
    <g id="Group_344" data-name="Group 344" transform="translate(1083.736 506.813)">
      <path id="Path_836" data-name="Path 836" d="M194.6,441.257l7.874-.459,7.874-.382c2.612-.076,5.224-.382,7.874-.229a46.715,46.715,0,0,1,7.874.994v.229a54.928,54.928,0,0,1-7.874,1.07c-2.612.153-5.224-.153-7.874-.229l-7.874-.306-7.874-.459Z" transform="translate(-194.6 -440.145)" fill="#b5b5b5"/>
    </g>
    <g id="First_Arrow" data-name="First Arrow">
      <g id="Group_343" data-name="Group 343" transform="translate(572.736 506.813)">
        <path id="Path_836-2" data-name="Path 836" d="M194.6,441.257l7.874-.459,7.874-.382c2.612-.076,5.224-.382,7.874-.229a46.715,46.715,0,0,1,7.874.994v.229a54.928,54.928,0,0,1-7.874,1.07c-2.612.153-5.224-.153-7.874-.229l-7.874-.306-7.874-.459Z" transform="translate(-194.6 -440.145)" fill="#b5b5b5"/>
      </g>
      <g id="Group_345" data-name="Group 345" transform="translate(602.179 496.536)">
        <path id="Path_837" data-name="Path 837" d="M273.537,426.7l3.1,5.427,3.06,5.427.261.459-.261.535c-.41.841-.821,1.758-1.269,2.522-.41.841-.858,1.682-1.306,2.446a52.291,52.291,0,0,1-2.836,4.433l-.037-.076c.746-1.911,1.567-3.669,2.388-5.427.41-.841.858-1.682,1.306-2.522s.9-1.605,1.343-2.37v.917l-2.911-5.809-2.873-5.886Z" transform="translate(-273.5 -426.7)" fill="#ccc"/>
      </g>
    </g>
    <g id="Group_346" data-name="Group 346" transform="translate(1113.179 496.536)">
      <path id="Path_837-2" data-name="Path 837" d="M273.537,426.7l3.1,5.427,3.06,5.427.261.459-.261.535c-.41.841-.821,1.758-1.269,2.522-.41.841-.858,1.682-1.306,2.446a52.291,52.291,0,0,1-2.836,4.433l-.037-.076c.746-1.911,1.567-3.669,2.388-5.427.41-.841.858-1.682,1.306-2.522s.9-1.605,1.343-2.37v.917l-2.911-5.809-2.873-5.886Z" transform="translate(-273.5 -426.7)" fill="#ccc"/>
    </g>
    <g id="Create_Groups-2" data-name="Create Groups">
      <g id="Group_347" data-name="Group 347" transform="translate(483.416 473.286)">
        <path id="Path_840" data-name="Path 840" d="M92.457,411.431a33.242,33.242,0,0,0-.153-3.9A12.589,12.589,0,0,0,79.768,396.3c-2.446,0-4.892.076-7.338,0-6.421-.306-12,4.892-12.689,11.466a71.665,71.665,0,0,0-.153,8.1v16.281q0,3.669,3.669,3.669h1.529v16.969a3.082,3.082,0,0,0,3.363,3.44h15.67a3.116,3.116,0,0,0,3.44-3.363V435.891c.459,0,.764-.076,1.07-.076,3.058.306,4.2-1.605,4.2-4.2C92.38,424.884,92.457,418.157,92.457,411.431Zm-2.675,20.715c0,.764-.306.994-.994.994h-4.2v19.033c0,1.07-.229,1.452-1.376,1.452q-7.223-.115-14.447,0c-1.147,0-1.376-.382-1.376-1.452.076-5.809,0-11.619,0-17.428v-1.529H63.334c-.841,0-1.147-.153-1.147-1.07v-22.7c0-5.274,4.051-10.7,10.472-10.4,2.14.076,4.357.076,6.5,0,6.268-.306,10.4,4.816,10.472,10.166C89.858,416.782,89.781,424.5,89.781,432.146Z" transform="translate(-59.55 -396.283)" fill="#fff"/>
      </g>
      <path id="Path_999" data-name="Path 999" d="M35.815,436.339H31.993c-.688,0-.917-.229-.917-.917,0-7.032-.076-14.065.076-21.1a9.185,9.185,0,0,1,9.631-9.249c1.376.076,2.828,0,4.281,0V402.4H39.942a10.616,10.616,0,0,0-6.8,2.446A12.608,12.608,0,0,0,28.4,415.089v19.033c0,4.128.459,4.663,4.739,4.968v14.753c0,2.752,1.07,3.822,3.9,3.822h8.026v-2.752H35.891C35.815,448.645,35.815,442.53,35.815,436.339Z" transform="translate(431.206 75.561)" fill="#fff"/>
      <path id="Path_1000" data-name="Path 1000" d="M111.953,402.507v2.522h4.357a9.407,9.407,0,0,1,2.522.229,9.288,9.288,0,0,1,7.032,9.326c.076,6.879,0,13.759,0,20.638,0,.917-.306,1.147-1.147,1.07-1.147-.076-2.37,0-3.669,0v17.5c0,.841-.229,1.147-1.07,1.07-1.07-.076-2.217,0-3.363,0H111.8v2.6a.578.578,0,0,0,.306.076c2.293,0,4.51-.076,6.8.076,3.9.229,5.045-1.147,4.892-4.892-.153-4.51,0-9.1,0-13.759.382,0,.611-.076.841-.076,2.9-.076,3.9-1.07,3.9-3.975,0-6.727.153-13.377-.076-20.1C128.234,404.8,120.9,401.055,111.953,402.507Z" transform="translate(411.555 75.607)" fill="#fff"/>
      <path id="Path_1001" data-name="Path 1001" d="M8.058,457.322c-.994,0-1.3-.229-1.3-1.3.076-4.433,0-8.867,0-13.3a7.861,7.861,0,0,0-.076-1.3H2.86c0-6.574-.229-12.995.076-19.415a7.433,7.433,0,0,1,7.8-7.032c1.682.076,3.44,0,5.2,0,.306,0,.688-.076.994-.076v-2.6H10.886A10.331,10.331,0,0,0,.261,422.313C.032,428.658.185,435,.185,441.347a2.91,2.91,0,0,0,2.752,2.828c.382,0,.764.076,1.223.076v12.077c0,2.522,1.147,3.669,3.593,3.669h9.1v-2.752C13.867,457.246,10.962,457.246,8.058,457.322Z" transform="translate(437.865 73.229)" fill="#fff"/>
      <path id="Path_1002" data-name="Path 1002" d="M156.94,422.517a10.435,10.435,0,0,0-8.867-10.166,63.772,63.772,0,0,0-7.644-.076c-.076,0-.076.076-.153.153v2.522h2.752a28.693,28.693,0,0,1,5.121.153c3.593.611,6.115,4.051,6.115,8.1v17.122c0,.382-.076.764-.076,1.147h-3.9V456c0,.994-.229,1.376-1.223,1.3-1.07-.077-2.14,0-3.21,0H140.2v2.752h9.1c2.522,0,3.669-1.07,3.669-3.593V445.525a7.86,7.86,0,0,1,.076-1.3h.994a2.939,2.939,0,0,0,2.9-3.058C156.94,434.9,157.016,428.709,156.94,422.517Z" transform="translate(404.864 73.254)" fill="#fff"/>
      <path id="Path_1003" data-name="Path 1003" d="M87.639,376.519a33.47,33.47,0,0,1-.306,3.9,8.1,8.1,0,0,1-7.873,6.421,20.481,20.481,0,0,1-3.745-.153,8.044,8.044,0,0,1-6.65-7.338,36.851,36.851,0,0,1,0-5.809,8.076,8.076,0,0,1,8.1-7.338,19.832,19.832,0,0,1,4.281.306,8.227,8.227,0,0,1,6.039,7.873v2.14Zm-16.129,0c-.382,5.886,2.828,8.179,8.179,7.567a5.529,5.529,0,0,0,5.121-5.274c.076-1.529.076-3.134,0-4.663a5.45,5.45,0,0,0-5.58-5.274H76.938a5.4,5.4,0,0,0-5.2,4.2C71.587,374.15,71.587,375.373,71.511,376.519Z" transform="translate(421.651 84.09)" fill="#fff"/>
      <path id="Path_1004" data-name="Path 1004" d="M119.814,381.7a23.891,23.891,0,0,1-.306,3.287,7.2,7.2,0,0,1-7.032,5.886,17.293,17.293,0,0,1-3.44-.153A7.3,7.3,0,0,1,103,383.454a30.469,30.469,0,0,1,.229-5.274,7.2,7.2,0,0,1,7.032-5.886,20.425,20.425,0,0,1,3.058.077,7.425,7.425,0,0,1,6.344,7.414v1.835A.237.237,0,0,0,119.814,381.7Zm-2.828-.076h0v-2.064a4.767,4.767,0,0,0-4.357-4.51c-4.969-.382-6.268,1.682-6.8,3.9a3.721,3.721,0,0,0-.076.917,14.689,14.689,0,0,1,0,1.835c-.382,4.969,2.14,6.88,6.956,6.5a4.732,4.732,0,0,0,4.281-4.281C117.062,383.148,116.986,382.384,116.986,381.62Z" transform="translate(413.631 82.659)" fill="#fff"/>
      <path id="Path_1005" data-name="Path 1005" d="M53.985,381.62a17.47,17.47,0,0,1,0,2.828,7.328,7.328,0,0,1-7.491,6.421,17.49,17.49,0,0,1-2.828-.076A7.372,7.372,0,0,1,37.4,383.3a27.891,27.891,0,0,1,.229-5.045,7.209,7.209,0,0,1,7.032-5.962,22.518,22.518,0,0,1,3.21.076,7.372,7.372,0,0,1,6.268,7.491c-.076.612-.076,1.223-.153,1.758Zm-2.675,0c.382-4.892-1.911-6.956-6.727-6.574a4.688,4.688,0,0,0-4.51,4.586v3.975a4.526,4.526,0,0,0,3.593,4.433c4.128.688,8.026-.229,7.644-5.962Z" transform="translate(429.088 82.659)" fill="#fff"/>
      <path id="Path_1006" data-name="Path 1006" d="M23.841,394.944c-.076.764,0,1.605-.153,2.37a5.964,5.964,0,0,1-4.051,5.045,8.434,8.434,0,0,1-5.809,0A6.191,6.191,0,0,1,9.7,396.625v-3.44a6.356,6.356,0,0,1,6.115-6.192,13.923,13.923,0,0,1,2.522.076,6.191,6.191,0,0,1,5.427,5.656,19.99,19.99,0,0,1,0,2.14A.075.075,0,0,0,23.841,394.944ZM12.3,394.867V396.7a3.61,3.61,0,0,0,3.593,3.44h1.452a3.615,3.615,0,0,0,3.669-3.363,26.986,26.986,0,0,0,0-3.516,3.61,3.61,0,0,0-3.593-3.44H15.815a3.582,3.582,0,0,0-3.516,3.363A12.347,12.347,0,0,1,12.3,394.867Z" transform="translate(435.612 79.195)" fill="#fff"/>
      <path id="Path_1007" data-name="Path 1007" d="M148.129,394.967v1.682a6.008,6.008,0,0,1-4.357,5.809,12.987,12.987,0,0,1-5.427,0,5.548,5.548,0,0,1-4.281-5.121,25.339,25.339,0,0,1,0-4.816,5.849,5.849,0,0,1,4.816-5.274,14.372,14.372,0,0,1,4.433,0,6.048,6.048,0,0,1,4.816,5.809,15.926,15.926,0,0,1,0,1.911Zm-2.675.076h0v-1.682a3.639,3.639,0,0,0-3.669-3.516h-1.452a3.524,3.524,0,0,0-3.593,3.516,22.5,22.5,0,0,0,0,3.21,3.6,3.6,0,0,0,3.669,3.593h1.223a3.591,3.591,0,0,0,3.822-3.745A8.269,8.269,0,0,0,145.454,395.044Z" transform="translate(406.337 79.172)" fill="#fff"/>
    </g>
    <g id="Group_348" data-name="Group 348" transform="translate(645.302 550.792)">
      <text id="Assign_Traits_Skills" data-name="Assign Traits &amp; Skills" transform="translate(0 12)" fill="#fff" font-size="10" font-family="Blokletters-Balpen, Blokletters Balpen"><tspan x="0" y="0">Assign Traits &amp; Skills</tspan></text>
    </g>
    <g id="Traits_Skills" data-name="Traits &amp; Skills">
      <path id="Path_1008" data-name="Path 1008" d="M459.285,431.091H434.6a10.407,10.407,0,0,1-10.4-10.4h0a10.406,10.406,0,0,1,10.4-10.4h24.69a10.407,10.407,0,0,1,10.4,10.4h0A10.506,10.506,0,0,1,459.285,431.091Z" transform="translate(286.404 73.7)" fill="none" stroke="#fff" stroke-miterlimit="10" stroke-width="1"/>
      <path id="Path_1009" data-name="Path 1009" d="M361.315,394.391H337.7A10.406,10.406,0,0,1,327.3,384h0a10.406,10.406,0,0,1,10.4-10.4h23.62a10.407,10.407,0,0,1,10.4,10.4h0A10.407,10.407,0,0,1,361.315,394.391Z" transform="translate(309.235 82.347)" fill="none" stroke="#fff" stroke-miterlimit="10" stroke-width="1.021"/>
      <path id="Path_1010" data-name="Path 1010" d="M459.3,468.491H437.6a10.407,10.407,0,0,1-10.4-10.4h0a10.407,10.407,0,0,1,10.4-10.4H459.3a10.406,10.406,0,0,1,10.4,10.4h0A10.406,10.406,0,0,1,459.3,468.491Z" transform="translate(285.697 64.888)" fill="none" stroke="#fff" stroke-miterlimit="10" stroke-width="1"/>
      <g id="Group_349" data-name="Group 349" transform="translate(634.548 454.8)">
        <path id="Path_886" data-name="Path 886" d="M450.752,372.1h-47.01a11.542,11.542,0,1,0,0,23.084h47.01a11.542,11.542,0,1,0,0-23.084Zm0,20.791h-47.01a9.249,9.249,0,0,1,0-18.5h47.01a9.249,9.249,0,0,1,0,18.5Z" transform="translate(-340.604 -372.1)" fill="#fff"/>
        <path id="Path_887" data-name="Path 887" d="M336.242,431.884H383.1a11.542,11.542,0,1,0,0-23.084H336.242a11.542,11.542,0,1,0,0,23.084Zm0-20.791H383.1a9.249,9.249,0,0,1,0,18.5H336.242a9.249,9.249,0,0,1,0-18.5Z" transform="translate(-324.7 -380.747)" fill="#fff"/>
        <path id="Path_888" data-name="Path 888" d="M385.927,446.2H336.242a11.542,11.542,0,1,0,0,23.084h49.685a11.542,11.542,0,1,0,0-23.084Zm0,20.791H336.242a9.249,9.249,0,1,1,0-18.5h49.685a9.249,9.249,0,1,1,0,18.5Z" transform="translate(-324.7 -389.559)" fill="#fff"/>
      </g>
      <path id="Path_1011" data-name="Path 1011" d="M443.44,350.42H326.26a11.223,11.223,0,0,1-11.16-11.16h0a11.223,11.223,0,0,1,11.16-11.16H443.44a11.223,11.223,0,0,1,11.16,11.16h0A11.223,11.223,0,0,1,443.44,350.42Z" transform="translate(312.109 93.067)" fill="none" stroke="#fff" stroke-miterlimit="10" stroke-width="4.136"/>
      <g id="Group_350" data-name="Group 350" transform="translate(638.474 427.367)">
        <text id="Leadership" transform="translate(0 7)" fill="#fff" font-size="6" font-family="Eina01-Bold, Eina01 ☞" font-weight="700"><tspan x="0" y="0">Leadership</tspan></text>
      </g>
      <g id="Group_351" data-name="Group 351" transform="translate(643.208 491.995)">
        <text id="Inductive_Reasoning" data-name="Inductive Reasoning" transform="translate(0 3)" fill="#fff" font-size="3" font-family="Eina01-Regular, Eina01-Regular ☞"><tspan x="0" y="0">Inductive Reasoning</tspan></text>
      </g>
      <g id="Group_352" data-name="Group 352" transform="translate(721.382 520.809)">
        <text id="Attention" transform="translate(0 3)" fill="#fff" font-size="3" font-family="Eina01-Regular, Eina01-Regular ☞"><tspan x="0" y="0">Attention</tspan></text>
      </g>
      <g id="Group_353" data-name="Group 353" transform="translate(645.109 464.698)">
        <text id="Empathy" transform="translate(0 3)" fill="#fff" font-size="3" font-family="Eina01-Regular, Eina01-Regular ☞"><tspan x="0" y="0">Empathy</tspan></text>
      </g>
      <g id="Group_354" data-name="Group 354" transform="translate(696.438 463.698)">
        <text id="Reaction_time" data-name="Reaction time" transform="translate(0 3)" fill="#fff" font-size="3" font-family="Eina01-Regular, Eina01-Regular ☞"><tspan x="0" y="0">Reaction time</tspan></text>
      </g>
      <g id="Group_355" data-name="Group 355" transform="translate(643.588 520.73)">
        <text id="Working_Memory" data-name="Working Memory" transform="translate(0 3)" fill="#fff" font-size="3" font-family="Eina01-Regular, Eina01-Regular ☞"><tspan x="0" y="0">Working Memory</tspan></text>
      </g>
      <g id="Group_356" data-name="Group 356" transform="translate(718.11 492.834)">
        <text id="Perserverence" transform="translate(0 2)" fill="#fff" font-size="2" font-family="Eina01-Regular, Eina01-Regular ☞"><tspan x="0" y="0">Perserverence</tspan></text>
      </g>
      <g id="Group_357" data-name="Group 357" transform="translate(748.52 428.362)">
        <path id="Path_890" data-name="Path 890" d="M478.54,343.083a3,3,0,0,1-4.128-.688,3.116,3.116,0,0,1,.229-3.975,3.03,3.03,0,0,1,4.663,3.822l.459.459.994.994a.541.541,0,0,1-.076.841.582.582,0,0,1-.688-.076l-1.223-1.223C478.693,343.236,478.616,343.159,478.54,343.083Zm-1.758-4.357a1.892,1.892,0,0,0-1.911,1.911,1.942,1.942,0,0,0,1.911,1.911,1.911,1.911,0,1,0,0-3.822Z" transform="translate(-473.803 -337.512)" fill="#fff"/>
      </g>
    </g>
    <g id="Assessment">
      <path id="Path_1012" data-name="Path 1012" d="M621.6,462.689V423.4h89.892v39.289Zm78.655-22.4a5.943,5.943,0,0,1,.994-.076,18.274,18.274,0,0,0,7.644-1.987c2.14-1.147,3.057-2.981,1.911-4.357a7.187,7.187,0,0,0-3.287-2.217,22.6,22.6,0,0,0-15.211.229,1.366,1.366,0,0,1-1.758-.306c-2.293-2.14-4.739-4.28-7.032-6.421a4.306,4.306,0,0,0-4.281-1.147c-3.363.764-6.65,1.452-10.013,2.217-3.975.841-7.95,1.682-11.924,2.6a7.489,7.489,0,0,0-1.682.994,11.5,11.5,0,0,0,1.682.841,23.716,23.716,0,0,1,2.752.764,3.862,3.862,0,0,1,1.911,1.911c.306.917-.688,1.605-1.605,2.064a12.953,12.953,0,0,1-9.861.306c-1.835-.611-2.217-1.682-1.529-3.134.153-.306-.229-1.07-.459-1.07a7.438,7.438,0,0,0-2.9-.076c-5.2,1.07-10.4,2.217-15.517,3.363-2.293.459-4.586.917-6.8,1.452-1.376.306-1.529.841-.535,1.682.764.688,1.529,1.376,2.293,2.14,7.644,6.956,15.364,13.835,23.008,20.791a4.079,4.079,0,0,0,4.128.917c4.663-1.07,9.4-2.064,14.065-3.057,1.3-.306,2.6-.535,3.975-.841a5.352,5.352,0,0,0,3.287,3.134,20.843,20.843,0,0,0,9.708,1.3,15.852,15.852,0,0,0,8.026-2.293c2.522-1.605,2.446-3.9-.076-5.5a15.235,15.235,0,0,0-1.682-.917c6.039-1.3,11.848-2.522,17.581-3.745a4.61,4.61,0,0,0,1.452-.459c.764-.306.917-.764.306-1.3l-1.835-1.605C704.765,444.421,702.625,442.433,700.255,440.293Z" transform="translate(190.894 71.25)" fill="#4e1f8a"/>
      <path id="Path_1013" data-name="Path 1013" d="M700.421,440.39c2.37,2.14,4.51,4.128,6.727,6.039l1.835,1.605c.611.535.459.994-.306,1.3a10.614,10.614,0,0,1-1.452.459c-5.733,1.223-11.542,2.446-17.581,3.745.688.382,1.223.612,1.682.917,2.6,1.605,2.675,3.9.076,5.5a16.89,16.89,0,0,1-8.026,2.293,20.843,20.843,0,0,1-9.708-1.3,5.552,5.552,0,0,1-3.287-3.134c-1.3.306-2.675.535-3.975.841-4.739.994-9.4,2.064-14.065,3.058a4.078,4.078,0,0,1-4.128-.917c-7.644-6.956-15.288-13.912-23.008-20.791-.764-.688-1.529-1.376-2.293-2.14-.917-.841-.841-1.376.535-1.682,2.293-.535,4.51-.994,6.8-1.452,5.2-1.147,10.319-2.293,15.517-3.363a9.265,9.265,0,0,1,2.9.076c.229.076.612.841.459,1.07-.688,1.529-.306,2.522,1.529,3.134a13.329,13.329,0,0,0,9.861-.306c.994-.459,1.911-1.147,1.605-2.064a4.2,4.2,0,0,0-1.911-1.911,14.47,14.47,0,0,0-2.752-.764,11.51,11.51,0,0,1-1.682-.841,4.261,4.261,0,0,1,1.682-.994c3.975-.917,7.95-1.758,11.924-2.6,3.363-.688,6.65-1.452,10.013-2.217a4.354,4.354,0,0,1,4.281,1.147c2.293,2.14,4.739,4.281,7.032,6.421a1.366,1.366,0,0,0,1.758.306,23.075,23.075,0,0,1,15.211-.229,7.83,7.83,0,0,1,3.287,2.217c1.147,1.376.229,3.21-1.911,4.357a18.581,18.581,0,0,1-7.644,1.987C701.186,440.39,700.956,440.39,700.421,440.39Zm-72.846-2.828c.459.459.841.764,1.147,1.07,7.109,6.5,14.294,12.918,21.4,19.415a4.267,4.267,0,0,0,4.433,1.07q8.829-2.064,17.887-3.9a9.038,9.038,0,0,1,2.828.229c.153,0,.459.612.306.841-.841,1.758-.229,2.752,1.835,3.44a14.194,14.194,0,0,0,8.179.076,6.487,6.487,0,0,0,1.682-.688c1.911-1.147,1.835-2.752-.306-3.669a18.156,18.156,0,0,0-2.9-.841c-.841-.153-1.911-.153-1.911-.994,0-.382,1.07-.841,1.758-.994,6.115-1.376,12.307-2.675,18.5-4.051a13.8,13.8,0,0,0,1.452-.382,4.536,4.536,0,0,0-.612-.611c-2.9-2.6-5.809-5.274-8.638-7.873-.764-.688-.688-1.147.459-1.376a12.974,12.974,0,0,1,2.981-.076,11.3,11.3,0,0,0,7.109-1.147c.764-.382,1.529-1.376,1.452-1.987-.076-.688-.994-1.452-1.835-1.835a9.9,9.9,0,0,0-3.363-.841c-2.752-.229-5.427.076-7.491,1.835-1.758,1.452-3.516,1.605-5.2.076-2.6-2.293-5.2-4.586-7.644-6.956a2.92,2.92,0,0,0-3.363-.841,27.435,27.435,0,0,1-2.675.612c-3.822.841-7.644,1.682-11.7,2.6a8.9,8.9,0,0,0,.994.611c3.363,1.758,3.363,4.357.076,6.115a11.287,11.287,0,0,1-2.217.917,22.914,22.914,0,0,1-13.224.229c-2.293-.688-4.281-1.605-4.969-3.745C638.506,435.192,633.155,436.339,627.575,437.562Z" transform="translate(190.728 71.152)" fill="#c7c7c7"/>
      <path id="Path_1014" data-name="Path 1014" d="M629.2,438.36c5.58-1.223,10.931-2.37,16.358-3.593.764,2.14,2.675,3.134,4.968,3.745a24.287,24.287,0,0,0,13.224-.229,11.284,11.284,0,0,0,2.217-.917c3.287-1.758,3.21-4.357-.076-6.115a8.9,8.9,0,0,1-.994-.612c4.051-.917,7.873-1.758,11.7-2.6a27.439,27.439,0,0,0,2.675-.612,2.92,2.92,0,0,1,3.363.841c2.446,2.37,5.121,4.663,7.644,6.956,1.682,1.452,3.44,1.376,5.2-.076,2.064-1.682,4.739-1.987,7.491-1.835a9.9,9.9,0,0,1,3.363.841c.764.382,1.758,1.147,1.835,1.835.076.612-.688,1.605-1.452,1.987a12.441,12.441,0,0,1-7.109,1.147,12.859,12.859,0,0,0-2.981.076c-1.147.229-1.223.688-.459,1.376,2.9,2.6,5.809,5.274,8.638,7.873l.611.612c-.535.153-.994.229-1.452.382-6.191,1.376-12.306,2.675-18.5,4.051-.688.153-1.758.612-1.758.994-.076.841,1.07.841,1.911.994a18.167,18.167,0,0,1,2.9.841c2.064.917,2.217,2.522.306,3.669a6.491,6.491,0,0,1-1.682.688,14.2,14.2,0,0,1-8.179-.076c-2.14-.688-2.675-1.758-1.834-3.44.076-.229-.153-.841-.306-.841a8.863,8.863,0,0,0-2.828-.229c-5.962,1.223-11.924,2.446-17.887,3.9a4.122,4.122,0,0,1-4.433-1.07c-7.032-6.5-14.218-12.918-21.4-19.415A7.05,7.05,0,0,0,629.2,438.36Z" transform="translate(189.103 70.354)" fill="#4e1f8a"/>
      <path id="Path_1015" data-name="Path 1015" d="M694.8,422.617l6.421,19.645v1.911l1.529,1.147h4.128l3.058-3.058v-3.745l-3.669-7.72-1.223-5.5-1.147-2.675-1.529-2.217Z" transform="translate(173.647 71.956)" fill="#4e1f8a"/>
      <path id="Path_1016" data-name="Path 1016" d="M662.555,428.421l-8.1,11.924-.153,4.128s4.51,0,4.128,1.147,4.128,0,4.128,0l3.745-4.892,5.274-8.714,3.21-5.121-2.064-3.593-4.51,1.529Z" transform="translate(183.189 71.273)" fill="#4e1f8a"/>
      <rect id="Rectangle_113" data-name="Rectangle 113" width="3.44" height="3.44" transform="translate(904.223 450.57) rotate(49.217)" fill="#c7c7c7"/>
      <line id="Line_1" data-name="Line 1" x1="20.638" y2="18.804" transform="translate(883.581 452.761)" fill="none" stroke="#fff" stroke-miterlimit="10" stroke-width="7"/>
      <g id="Group_358" data-name="Group 358" transform="translate(831.083 448.003)">
        <path id="Path_896" data-name="Path 896" d="M681.943,366.843a4.362,4.362,0,0,0-4.586-1.3c-5.045,1.452-10.166,2.828-15.211,4.281a5.869,5.869,0,0,0-1.911,1.07c-3.363,3.593-6.727,7.262-10.09,10.931a4.382,4.382,0,0,0,2.064,7.185,4.094,4.094,0,0,0,4.357-1.3c2.064-2.293,4.281-4.433,6.115-6.879a11.012,11.012,0,0,1,7.338-4.357c1.376-.229,2.064.306,1.682,1.682-1.223,4.586-2.522,9.173-3.822,13.835a4.714,4.714,0,0,0,1.758,5.427c4.357,3.44,8.714,6.879,13.071,10.4a3.688,3.688,0,0,1,1.146,1.682c.688,2.064,1.3,4.128,1.911,6.191,1.376,4.433,2.675,8.943,4.051,13.377a4.252,4.252,0,0,0,4.739,2.981,4.486,4.486,0,0,0,3.746-4.281c-.153-.612-.229-1.223-.382-1.835-2.14-7.185-4.2-14.37-6.421-21.479a4.489,4.489,0,0,0-1.529-2.217c-3.669-2.981-7.415-5.886-11.084-8.79-1.987-1.529-1.987-1.529-1.3-3.9,1.758-6.115,3.44-12.23,5.2-18.345A4.355,4.355,0,0,0,681.943,366.843Z" transform="translate(-646.644 -363.078)" fill="none"/>
        <path id="Path_897" data-name="Path 897" d="M711.8,383.366c-2.14-.535-4.281-.994-6.421-1.605a3.464,3.464,0,0,1-1.452-.841c-2.6-2.752-5.121-5.5-7.644-8.255a6.915,6.915,0,0,1-.688-.764c-.917,3.287-1.758,6.5-2.6,9.708-.076.229.153.611.306.841,1.835,2.064,3.669,4.051,5.58,6.039a4.549,4.549,0,0,0,1.987,1.223c2.981.841,5.962,1.529,9.02,2.217a4.451,4.451,0,0,0,5.274-3.287A4.582,4.582,0,0,0,711.8,383.366Z" transform="translate(-657.007 -364.619)" fill="none"/>
        <path id="Path_898" data-name="Path 898" d="M675.09,413.4c-2.37-1.758-4.663-3.593-7.109-5.5-.076.153-.076.306-.153.459-.459,2.675-1.07,5.427-1.452,8.179a13.142,13.142,0,0,1-2.064,5.274c-2.981,4.357-5.886,8.79-8.79,13.224a4.149,4.149,0,0,0-.764,3.516,4.22,4.22,0,0,0,3.516,3.44,4.157,4.157,0,0,0,4.51-1.987c3.669-5.427,7.338-10.854,10.931-16.358a4.119,4.119,0,0,0,.612-1.605c.459-2.37.841-4.816,1.3-7.185A1.272,1.272,0,0,0,675.09,413.4Z" transform="translate(-647.969 -373.101)" fill="none"/>
        <path id="Path_899" data-name="Path 899" d="M701.4,379.134c-2.064-.535-4.128-.994-6.192-1.605a2.8,2.8,0,0,1-1.376-.841c-3.669-3.9-7.262-7.873-10.854-11.848a7.035,7.035,0,0,0-7.567-2.14c-4.969,1.3-9.937,2.752-14.906,4.281a6.4,6.4,0,0,0-2.752,1.682c-3.516,3.745-6.88,7.491-10.319,11.389a6.248,6.248,0,0,0,.306,8.485,6.468,6.468,0,0,0,9.631-.076c2.675-2.9,5.351-5.809,7.873-8.79.841-.917,1.834-.994,2.981-1.3a3.473,3.473,0,0,1-.153.612,219.7,219.7,0,0,0-6.039,26.371,9.038,9.038,0,0,1-1.07,3.44c-3.134,4.816-6.191,9.631-9.325,14.447a6.4,6.4,0,0,0-.764,5.962,6.183,6.183,0,0,0,5.274,4.281,6.332,6.332,0,0,0,6.344-2.752c3.593-5.351,7.185-10.625,10.625-15.976a14.239,14.239,0,0,0,1.3-3.134c.229-.764.306-1.605.459-2.37.229-1.376.535-2.752.841-4.281,1.529,1.223,2.9,2.293,4.357,3.363a3.222,3.222,0,0,1,1.223,1.758c1.835,6.268,3.745,12.536,5.657,18.8a6.536,6.536,0,0,0,7.415,4.586c4.128-.841,6.344-4.663,5.045-8.867-2.064-6.956-4.128-13.835-6.191-20.791a8.416,8.416,0,0,0-3.058-4.51c-3.593-2.752-7.109-5.58-10.625-8.332-.229-.153-.535-.612-.459-.841.688-2.6,1.452-5.274,2.217-8.1,1.758,1.911,3.363,3.745,5.045,5.427a8.008,8.008,0,0,0,2.9,1.911c3.287.917,6.574,1.758,9.937,2.446a6.3,6.3,0,0,0,7.185-5.58A7.033,7.033,0,0,0,701.4,379.134Zm-27.824,25.072c-.459,2.37-.841,4.816-1.3,7.185a4.117,4.117,0,0,1-.612,1.605c-3.593,5.427-7.262,10.931-10.931,16.358a4.394,4.394,0,0,1-8.026-1.452,4.424,4.424,0,0,1,.765-3.516c2.9-4.434,5.809-8.867,8.79-13.224a12.123,12.123,0,0,0,2.064-5.274c.382-2.752.994-5.427,1.452-8.179a1.086,1.086,0,0,1,.153-.459c2.446,1.835,4.739,3.746,7.109,5.5A1.2,1.2,0,0,1,673.575,404.206Zm3.287-15.211c-.688,2.37-.688,2.37,1.3,3.9,3.745,2.9,7.415,5.809,11.084,8.79a4.489,4.489,0,0,1,1.529,2.217c2.217,7.109,4.281,14.294,6.421,21.479.153.612.229,1.223.382,1.835a4.486,4.486,0,0,1-3.745,4.281,4.1,4.1,0,0,1-4.739-2.981c-1.376-4.433-2.675-8.943-4.051-13.377-.612-2.064-1.223-4.128-1.911-6.191a3.688,3.688,0,0,0-1.147-1.682c-4.357-3.516-8.638-6.956-13.071-10.4a4.714,4.714,0,0,1-1.758-5.427c1.223-4.586,2.523-9.173,3.822-13.835.382-1.3-.306-1.911-1.682-1.682a11.5,11.5,0,0,0-7.338,4.357c-1.835,2.446-4.051,4.586-6.115,6.879a4.135,4.135,0,0,1-4.357,1.3,4.033,4.033,0,0,1-3.058-3.058,4.283,4.283,0,0,1,.994-4.128c3.363-3.669,6.727-7.338,10.09-10.931a3.672,3.672,0,0,1,1.911-1.07c5.045-1.452,10.166-2.828,15.211-4.281a4.153,4.153,0,0,1,4.586,1.3,4.238,4.238,0,0,1,.841,4.51C680.3,376.765,678.544,382.88,676.862,388.995ZM704,386.472a4.514,4.514,0,0,1-5.274,3.287c-2.981-.688-6.039-1.376-9.02-2.217a4.84,4.84,0,0,1-1.987-1.223c-1.911-1.987-3.746-3.975-5.58-6.039-.153-.229-.382-.611-.306-.841.841-3.21,1.758-6.421,2.6-9.708a6.9,6.9,0,0,0,.688.764c2.523,2.752,5.045,5.5,7.644,8.255a2.814,2.814,0,0,0,1.452.841c2.14.612,4.281,1.07,6.421,1.605A4.383,4.383,0,0,1,704,386.472Z" transform="translate(-645.919 -362.375)" fill="#fff"/>
      </g>
      <path id="Path_1017" data-name="Path 1017" d="M700.966,339.924A13.033,13.033,0,1,1,687.971,326.7,13.181,13.181,0,0,1,700.966,339.924Zm-2.14-.076a10.848,10.848,0,0,0-10.778-10.931,10.893,10.893,0,1,0,10.778,10.931Z" transform="translate(178.335 94.033)" fill="#fff"/>
      <g id="Group_359" data-name="Group 359" transform="translate(867.36 430.22)">
        <path id="Path_901" data-name="Path 901" d="M706.542,349.422l-9.02-1.835c-2.752-.612-4.586-2.981-4.051-5.274s3.134-3.669,5.886-3.057l9.02,1.834" transform="translate(-693.379 -339.11)" fill="#4e1f8a" stroke="#fff" stroke-miterlimit="10" stroke-width="3"/>
        <path id="Path_902" data-name="Path 902" d="M712.234,341.7a1.92,1.92,0,0,1,1.452,2.14l-1.07,4.739a1.844,1.844,0,0,1-2.217,1.376" transform="translate(-697.389 -339.72)" fill="none" stroke="#fff" stroke-miterlimit="10" stroke-width="3"/>
        <line id="Line_2" data-name="Line 2" y1="8.255" x2="1.758" transform="translate(10.794 1.521)" fill="none" stroke="#fff" stroke-miterlimit="10" stroke-width="3"/>
      </g>
      <line id="Line_2-2" data-name="Line 2" x1="12.918" y1="2.446" transform="translate(855.146 431.129)" fill="none" stroke="#fff" stroke-miterlimit="10" stroke-width="7"/>
    </g>
    <g id="Analytics-2" data-name="Analytics">
      <path id="Path_1018" data-name="Path 1018" d="M992.954,356.125m3.593,4.969a3.2,3.2,0,0,1,.612.917c1.682,3.134.306,5.809-2.752,7.644-.306.229-.994.841-.994,1.223,0,10.549.382,21.1.382,31.646,0,12.918-.382,25.76-.382,38.678v1.452h11.237v2.675H897.1V346.8h2.675v92.338c.153.076.306.229.459.306.076-.229.917-.535.994-.688,3.593-5.2,7.262-10.472,10.931-15.67.382-.535-.306-.917-.688-1.529a5.24,5.24,0,0,1,5.274-7.72,2.82,2.82,0,0,0,2.446-.764c6.039-8.714,12.077-17.352,18.116-26.065.458-.688-.229-1.147-.612-1.911a5.036,5.036,0,0,1,1.07-6.039,5.363,5.363,0,0,1,6.115-.994,5.464,5.464,0,0,1,2.9,5.427c-.076.306-.612,1.3-.306,1.452,5.045,2.981,10.09,5.886,15.135,8.79.229.153,1.529-.306,1.758-.459a5.8,5.8,0,0,1,4.969-1.147,3.748,3.748,0,0,0,1.911-.611c4.051-5.351,8.1-10.778,12.077-16.205,1.835-2.446,3.669-4.892,5.427-7.338.229-.382-.459-.994-.535-1.376a5.379,5.379,0,0,1,5.5-7.185,8.619,8.619,0,0,1,1.07.153m5.2,1.452-30.5,81.636h20.868c.994,0,1.223-.306,1.223-1.223v-70.4a14.6,14.6,0,0,0-.153-1.529,6.971,6.971,0,0,0-.841.917c-5.809,7.873-11.695,15.67-17.5,23.543a1.738,1.738,0,0,0-.229,1.376,5.269,5.269,0,0,1-2.37,6.574,1.5,1.5,0,0,0-.917,1.605v27.365C968.494,434.781,968.494,438.679,968.494,442.654Zm-25.3-.076c.535,0,.841.076,1.223.076h19.8c.841,0,.994-.229.994-1.07V403.747a1.807,1.807,0,0,0-1.07-1.834,4.7,4.7,0,0,1-2.6-3.975,1.656,1.656,0,0,0-1.07-1.605c-4.969-2.828-9.861-5.733-14.829-8.638-1.376-.764-2.523-.153-2.523,1.452V441.2A8.3,8.3,0,0,1,943.193,442.578Zm-3.516-53.889a12.063,12.063,0,0,0-.764.994l-17.887,25.683a1.259,1.259,0,0,0-.077,1.529,5.13,5.13,0,0,1-2.14,6.88,1.6,1.6,0,0,0-.917,1.605v16.129c0,.382.076.764.076,1.147.382,0,.688.076.994.076h20.027c.917,0,.917-.459.917-1.147v-51.6C939.829,389.606,939.753,389.3,939.676,388.688Zm-37.684,53.889H914.3V424.92C910.094,430.959,906.12,436.692,901.992,442.578Zm90.045-75.9a1.849,1.849,0,0,0,1.988-1.835,1.876,1.876,0,0,0-1.835-1.911,1.851,1.851,0,0,0-1.987,1.835A1.787,1.787,0,0,0,992.037,366.674Zm-75.9,50.6a1.766,1.766,0,0,0-1.834,1.835,1.805,1.805,0,0,0,1.911,1.911,1.766,1.766,0,0,0,1.834-1.834A1.845,1.845,0,0,0,916.133,417.276Zm50.6-17.963a1.787,1.787,0,0,0,1.911-1.835,1.873,1.873,0,1,0-1.911,1.835Zm-25.3-14.523a1.787,1.787,0,0,0,1.911-1.835,1.876,1.876,0,0,0-1.834-1.911,1.829,1.829,0,0,0-1.911,1.835A1.787,1.787,0,0,0,941.434,384.79Z" transform="translate(69.345 89.298)" fill="#fff"/>
      <g id="Group_368" data-name="Group 368">
        <path id="Path_1019" data-name="Path 1019" d="M989.463,359.151c-1.605-.994-3.057-1.911-4.663-2.9.382-.764.764-1.529,1.3-2.446,1.605.994,3.21,1.987,4.892,2.981C990.38,357.622,989.921,358.386,989.463,359.151Z" transform="translate(48.682 87.648)" fill="#c7c7c7"/>
        <path id="Path_1020" data-name="Path 1020" d="M922.7,409.047l2.522-1.147c.764,1.682,1.529,3.363,2.293,5.121-.841.382-1.605.764-2.522,1.147C924.229,412.486,923.541,410.8,922.7,409.047Z" transform="translate(63.314 74.902)" fill="#c7c7c7"/>
        <path id="Path_1021" data-name="Path 1021" d="M923.611,375.4c.917.382,1.758.764,2.522,1.07-.612,1.758-1.223,3.44-1.835,5.121-.841-.306-1.682-.535-2.6-.841C922.311,378.916,923,377.158,923.611,375.4Z" transform="translate(63.549 82.559)" fill="#c7c7c7"/>
        <path id="Path_1022" data-name="Path 1022" d="M920.3,397.982c.994-.153,1.834-.229,2.752-.382.306,1.758.611,3.516.917,5.351-.841.153-1.682.382-2.675.612C920.911,401.651,920.606,399.817,920.3,397.982Z" transform="translate(63.879 77.328)" fill="#c7c7c7"/>
        <path id="Path_1023" data-name="Path 1023" d="M980.791,351.582c-.306.917-.535,1.758-.841,2.6-1.758-.535-3.516-1.07-5.351-1.682.306-.917.535-1.758.841-2.6C977.275,350.435,979.033,351.047,980.791,351.582Z" transform="translate(51.086 88.567)" fill="#c7c7c7"/>
        <path id="Path_1024" data-name="Path 1024" d="M947.221,352c.382.917.765,1.682,1.147,2.522-1.605.841-3.21,1.605-4.892,2.446-.459-.764-.841-1.529-1.376-2.37C943.782,353.682,945.463,352.841,947.221,352Z" transform="translate(58.743 88.072)" fill="#c7c7c7"/>
        <path id="Path_1025" data-name="Path 1025" d="M931.527,367.282c-1.07,1.529-2.064,2.981-3.134,4.51-.765-.535-1.452-.994-2.293-1.529,1.07-1.605,2.14-3.134,3.287-4.663C930.151,366.211,930.839,366.747,931.527,367.282Z" transform="translate(62.513 84.868)" fill="#c7c7c7"/>
        <path id="Path_1026" data-name="Path 1026" d="M933,361.422c1.452-1.3,2.828-2.522,4.281-3.822.612.764,1.223,1.376,1.758,2.064-1.376,1.223-2.675,2.37-4.051,3.593C934.376,362.721,933.764,362.11,933,361.422Z" transform="translate(60.887 86.753)" fill="#c7c7c7"/>
        <path id="Path_1027" data-name="Path 1027" d="M995.564,360.7c1.146,1.223,2.446,2.6,3.745,3.975l-2.064,1.835c-1.223-1.3-2.446-2.6-3.745-3.975C994.188,361.923,994.8,361.388,995.564,360.7Z" transform="translate(46.632 86.023)" fill="#c7c7c7"/>
        <path id="Path_1028" data-name="Path 1028" d="M922.852,392.309c-.917-.076-1.758-.076-2.752-.153.153-1.911.306-3.745.535-5.656.994.153,1.835.229,2.752.382C923.234,388.717,923,390.475,922.852,392.309Z" transform="translate(63.926 79.944)" fill="#c7c7c7"/>
        <path id="Path_1029" data-name="Path 1029" d="M964.2,351.552V348.8c1.911.076,3.745.229,5.656.306a21.319,21.319,0,0,1-.306,2.446c0,.153-.306.306-.535.306C967.487,351.7,965.882,351.628,964.2,351.552Z" transform="translate(53.536 88.826)" fill="#c7c7c7"/>
        <path id="Path_1030" data-name="Path 1030" d="M958.28,349.1c.153.994.229,1.835.382,2.752-1.758.382-3.516.764-5.351,1.147-.229-.841-.382-1.605-.612-2.522C954.611,350.017,956.445,349.559,958.28,349.1Z" transform="translate(56.246 88.756)" fill="#c7c7c7"/>
      </g>
      <path id="Path_1031" data-name="Path 1031" d="M990.5,449.675v-39.06a1.5,1.5,0,0,1,.917-1.605,5.191,5.191,0,0,0,2.37-6.574,1.738,1.738,0,0,1,.229-1.376c5.809-7.873,11.7-15.746,17.5-23.543.153-.229.459-.459.841-.917.076.688.153,1.147.153,1.529v70.4c0,.917-.229,1.223-1.223,1.223-6.5-.076-12.995,0-19.568,0A5.438,5.438,0,0,0,990.5,449.675Z" transform="translate(47.339 82.276)" fill="#8d288f" opacity="0.11"/>
      <path id="Path_1032" data-name="Path 1032" d="M957.4,455.082V401.651c0-1.605,1.146-2.217,2.522-1.452,4.968,2.9,9.86,5.733,14.829,8.638a1.728,1.728,0,0,1,1.07,1.605,4.6,4.6,0,0,0,2.6,3.975,1.807,1.807,0,0,1,1.07,1.835v37.837c0,.764-.229,1.07-.994,1.07H958.7A7.414,7.414,0,0,1,957.4,455.082Z" transform="translate(55.138 76.793)" fill="#facc1b" opacity="0.11"/>
      <path id="Path_1033" data-name="Path 1033" d="M946.9,401.6c.076.612-.688.994-.688,1.3,0,17.2.764,34.4.764,51.6,0,.688-.841,1.147-1.682,1.147H925.27c-.306,0-.611-.076-.994-.076,0-.382-.076-.764-.076-1.147V438.29a1.66,1.66,0,0,1,.917-1.605,5.13,5.13,0,0,0,2.14-6.88,1.259,1.259,0,0,1,.076-1.529l17.887-25.683C945.526,402.288,946.52,402.059,946.9,401.6Z" transform="translate(62.96 76.386)" fill="#8d288f" opacity="0.11"/>
      <path id="Path_1034" data-name="Path 1034" d="M903.5,466.657c4.128-5.886,8.867-11.619,13.147-17.657v17.657Z" transform="translate(67.838 65.218)" fill="#facc1b" opacity="0.11"/>
      <g id="Group_360" data-name="Group 360" transform="translate(1013.99 453.661)">
        <g id="Group_253" data-name="Group 253" transform="translate(0 0)">
          <path id="Path_920" data-name="Path 920" d="M974.282,384.34c-3.363,3.21-14.982,2.6-14.982,2.6s.077-11.619,3.44-14.753a8.381,8.381,0,1,1,11.542,12.154Z" transform="translate(-959.3 -369.799)" fill="#fff" opacity="0.28"/>
          <circle id="Ellipse_30" data-name="Ellipse 30" cx="5.58" cy="5.58" r="5.58" transform="matrix(0.727, -0.687, 0.687, 0.727, 1.785, 7.666)" fill="#fff"/>
        </g>
        <text id="_12" data-name="12" transform="translate(7.124 7.662)" fill="#8d288f" font-size="2" font-family="Montserrat-SemiBold, Montserrat" font-weight="600"><tspan x="0" y="0">12</tspan></text>
      </g>
      <g id="Group_361" data-name="Group 361" transform="translate(1064.669 432.386)">
        <g id="Group_255" data-name="Group 255" transform="translate(0 0)">
          <path id="Path_921" data-name="Path 921" d="M1040.582,356.549c-3.363,3.21-14.982,2.6-14.982,2.6s.076-11.619,3.44-14.753a8.381,8.381,0,1,1,11.542,12.154Z" transform="translate(-1025.6 -341.983)" fill="#c7c7c7" opacity="0.32"/>
          <circle id="Ellipse_31" data-name="Ellipse 31" cx="5.58" cy="5.58" r="5.58" transform="matrix(0.727, -0.687, 0.687, 0.727, 1.779, 7.666)" fill="#fff"/>
        </g>
        <text id="_41" data-name="41" transform="translate(7.413 7.297)" fill="#facc1b" font-size="2" font-family="Montserrat-SemiBold, Montserrat" font-weight="600"><tspan x="0" y="0">41</tspan></text>
      </g>
    </g>
    <g id="Best_Fit" data-name="Best Fit">
      <path id="Path_1035" data-name="Path 1035" d="M1234.1,379.631v.306c.459-4.51,5.121-11.237,11.313-11.237h8.791c6.192,0,11.313,6.192,11.313,11.237v-.306C1265.44,379.86,1234.1,379.86,1234.1,379.631Z" transform="translate(-61.602 84.138)" fill="#fff"/>
      <rect id="Rectangle_114" data-name="Rectangle 114" width="6.727" height="14.982" transform="translate(1171.734 450.162)" fill="#4e1f8a"/>
      <rect id="Rectangle_115" data-name="Rectangle 115" width="7.109" height="14.982" transform="translate(1197.111 450.162)" fill="#4e1f8a"/>
      <rect id="Rectangle_116" data-name="Rectangle 116" width="3.745" height="8.255" transform="translate(1199.71 449.78)" fill="#4e1f8a"/>
      <path id="Path_1036" data-name="Path 1036" d="M1259.738,351.379c-.076.994-.076,2.064-.229,3.057a6.783,6.783,0,0,1-6.5,5.427,14.135,14.135,0,0,1-3.134-.153,6.794,6.794,0,0,1-5.58-6.65,25.432,25.432,0,0,1,.229-4.816,6.5,6.5,0,0,1,6.5-5.351,17.489,17.489,0,0,1,2.828.076,6.836,6.836,0,0,1,5.809,6.8,12.412,12.412,0,0,0,.076,1.605Zm-2.6-.076h0v-1.911a4.366,4.366,0,0,0-4.051-4.128c-4.586-.382-5.733,1.529-6.268,3.593a2.867,2.867,0,0,0-.076.841v1.682c-.382,4.586,1.911,6.344,6.421,5.962a4.338,4.338,0,0,0,3.975-3.975A18.594,18.594,0,0,0,1257.139,351.3Z" transform="translate(-64.003 90.222)" fill="#fff"/>
      <path id="Path_1037" data-name="Path 1037" d="M1259.75,441.053V456.57a2.857,2.857,0,0,1-3.134,3.134h-14.37a2.857,2.857,0,0,1-3.134-3.134V441.053h-1.452c-2.217,0-3.363-1.07-3.363-3.363V422.784c0-2.522-.076-4.969.153-7.415a11.554,11.554,0,0,1,11.619-10.472c2.217.077,4.51,0,6.727,0a11.518,11.518,0,0,1,11.466,10.319,27.662,27.662,0,0,1,.153,3.593c0,6.191-.076,12.307,0,18.5,0,2.37-.994,4.128-3.822,3.9C1260.438,440.977,1260.132,441.053,1259.75,441.053Zm-18.193-2.522v17.428c0,.994.229,1.3,1.223,1.3,4.434-.076,8.867-.076,13.224,0,1.07,0,1.3-.382,1.223-1.3-.076-5.351,0-10.7,0-16.052v-1.3h3.822c.612,0,.917-.153.917-.841,0-7.032.076-14.065-.076-21.1a9.227,9.227,0,0,0-9.555-9.326q-2.981.115-5.962,0c-5.886-.229-9.555,4.663-9.631,9.478v20.791c0,.841.306.994,1.07.994C1239.035,438.531,1240.182,438.531,1241.558,438.531Z" transform="translate(-61.645 75.611)" fill="#fff"/>
      <path id="Path_1038" data-name="Path 1038" d="M1214.957,429.333c-3.9-.306-4.357-.841-4.357-4.586V407.319a11.672,11.672,0,0,1,4.28-9.4,9.758,9.758,0,0,1,6.192-2.217h4.739v2.446c-1.376,0-2.676.076-3.9,0a8.356,8.356,0,0,0-8.79,8.485c-.153,6.421,0,12.918-.077,19.339,0,.611.229.841.841.841h3.516v17.046h8.408v2.522h-7.338c-2.6,0-3.593-.994-3.593-3.516V430.556A6.162,6.162,0,0,0,1214.957,429.333Z" transform="translate(-56.065 77.776)" fill="#fff"/>
      <path id="Path_1039" data-name="Path 1039" d="M1288.431,429.3c0,4.281-.076,8.408,0,12.612.076,3.44-.917,4.663-4.51,4.433-2.064-.076-4.128,0-6.192-.076-.076,0-.153-.076-.229-.076v-2.37h4.357c.994,0,2.064-.076,3.057,0,.764.076.994-.229.994-.994V426.775h3.363c.764,0,1.07-.153,1.07-.994V406.824a8.593,8.593,0,0,0-6.5-8.561,11.574,11.574,0,0,0-2.293-.153H1277.5v-2.293c8.179-1.3,14.906,2.064,15.211,11.389.229,6.115.076,12.23,0,18.422,0,2.675-.917,3.593-3.593,3.669C1288.966,429.221,1288.813,429.3,1288.431,429.3Z" transform="translate(-71.828 77.812)" fill="#fff"/>
      <path id="Path_1040" data-name="Path 1040" d="M1192.131,402.2h3.516c0,.459.076.841.076,1.223v12.23c0,.917.306,1.147,1.223,1.147,2.675-.076,5.351,0,8.026,0v2.522h-8.408c-2.293,0-3.287-.994-3.287-3.363V404.876a4.374,4.374,0,0,1-1.07-.076,2.722,2.722,0,0,1-2.522-2.6c0-5.809-.153-11.619.076-17.428a9.467,9.467,0,0,1,9.708-9.173h5.5v2.446c-.306,0-.612.076-.917.076-1.605,0-3.134.076-4.739,0a6.864,6.864,0,0,0-7.109,6.421C1191.978,390.276,1192.131,396.162,1192.131,402.2Z" transform="translate(-51.125 82.512)" fill="#fff"/>
      <path id="Path_1041" data-name="Path 1041" d="M1307.773,402.128h3.592c0-.382.076-.764.076-1.07v-15.67c0-3.745-2.293-6.879-5.58-7.415-1.529-.229-3.134-.076-4.739-.153H1298.6v-2.293c.076-.076.076-.153.153-.153a53.83,53.83,0,0,1,7.032.076,9.544,9.544,0,0,1,8.179,9.326c.076,5.656.076,11.389,0,17.046a2.791,2.791,0,0,1-2.675,2.828h-.917c0,.459-.076.841-.076,1.223v10.013c0,2.293-1.07,3.287-3.363,3.287H1298.6v-2.523h5.2c.994,0,1.987-.076,2.9,0,.994.077,1.147-.306,1.147-1.223-.077-4.051,0-8.026,0-12.077A6.19,6.19,0,0,1,1307.773,402.128Z" transform="translate(-76.799 82.585)" fill="#fff"/>
      <path id="Path_1042" data-name="Path 1042" d="M1284.638,376.779c-.076.994-.076,2.064-.229,3.058a6.783,6.783,0,0,1-6.5,5.427,14.135,14.135,0,0,1-3.134-.153,6.8,6.8,0,0,1-5.58-6.65,25.433,25.433,0,0,1,.229-4.816,6.5,6.5,0,0,1,6.5-5.351,17.488,17.488,0,0,1,2.828.076,6.836,6.836,0,0,1,5.809,6.8c.076.459,0,1.07.076,1.605Zm-2.522-.076h0v-1.911a4.366,4.366,0,0,0-4.051-4.128c-4.586-.382-5.733,1.529-6.268,3.593a2.867,2.867,0,0,0-.076.841v1.682c-.382,4.586,1.911,6.344,6.421,5.962a4.338,4.338,0,0,0,3.975-3.975Z" transform="translate(-69.869 84.238)" fill="#fff"/>
      <path id="Path_1043" data-name="Path 1043" d="M1234.108,376.655c0,.841.076,1.758,0,2.6a6.737,6.737,0,0,1-6.879,5.886,14.774,14.774,0,0,1-2.6-.076,6.782,6.782,0,0,1-5.733-6.88,30.339,30.339,0,0,1,.153-4.586,6.693,6.693,0,0,1,6.421-5.5,18.2,18.2,0,0,1,2.9.076,6.857,6.857,0,0,1,5.809,6.88,11.292,11.292,0,0,1-.076,1.605Zm-2.446,0c.382-4.51-1.758-6.421-6.191-6.039a4.333,4.333,0,0,0-4.128,4.2v3.669a4.116,4.116,0,0,0,3.287,4.051c3.822.612,7.338-.229,7.032-5.5Z" transform="translate(-58.017 84.285)" fill="#fff"/>
      <path id="Path_1044" data-name="Path 1044" d="M1211.371,359.579a10.814,10.814,0,0,1-.153,2.217,5.441,5.441,0,0,1-3.745,4.663,8.032,8.032,0,0,1-5.351,0,5.68,5.68,0,0,1-3.822-5.274v-3.134a5.744,5.744,0,0,1,5.657-5.656,11.514,11.514,0,0,1,2.293.076,5.7,5.7,0,0,1,4.968,5.2,17.243,17.243,0,0,1,0,1.987C1211.294,359.579,1211.294,359.579,1211.371,359.579Zm-10.549-.076v1.682a3.282,3.282,0,0,0,3.287,3.134h1.376a3.352,3.352,0,0,0,3.363-3.134,23.584,23.584,0,0,0,0-3.287,3.282,3.282,0,0,0-3.287-3.134h-1.452a3.254,3.254,0,0,0-3.21,3.058A6.345,6.345,0,0,0,1200.822,359.5Z" transform="translate(-53.167 87.984)" fill="#fff"/>
      <path id="Path_1045" data-name="Path 1045" d="M1234.771,353.179a10.821,10.821,0,0,1-.153,2.217,5.441,5.441,0,0,1-3.746,4.663,8.032,8.032,0,0,1-5.351,0,5.68,5.68,0,0,1-3.822-5.274v-3.134a5.743,5.743,0,0,1,5.656-5.656,11.512,11.512,0,0,1,2.293.076,5.7,5.7,0,0,1,4.969,5.2,17.245,17.245,0,0,1,0,1.987Zm-10.549,0v1.682a3.282,3.282,0,0,0,3.287,3.134h1.376a3.352,3.352,0,0,0,3.363-3.134,23.547,23.547,0,0,0,0-3.287,3.282,3.282,0,0,0-3.287-3.134h-1.452a3.254,3.254,0,0,0-3.21,3.058C1224.223,352.109,1224.3,352.644,1224.223,353.179Z" transform="translate(-58.681 89.492)" fill="#fff"/>
      <path id="Path_1046" data-name="Path 1046" d="M1284.671,353.179a10.83,10.83,0,0,1-.153,2.217,5.441,5.441,0,0,1-3.745,4.663,8.033,8.033,0,0,1-5.351,0,5.68,5.68,0,0,1-3.822-5.274v-3.134a5.743,5.743,0,0,1,5.656-5.656,11.511,11.511,0,0,1,2.293.076,5.7,5.7,0,0,1,4.969,5.2,17.272,17.272,0,0,1,0,1.987A.236.236,0,0,1,1284.671,353.179Zm-10.548,0v1.682a3.282,3.282,0,0,0,3.287,3.134h1.376a3.352,3.352,0,0,0,3.363-3.134,23.584,23.584,0,0,0,0-3.287,3.282,3.282,0,0,0-3.287-3.134h-1.452a3.254,3.254,0,0,0-3.21,3.058A12.919,12.919,0,0,0,1274.122,353.179Z" transform="translate(-70.438 89.492)" fill="#fff"/>
      <path id="Path_1047" data-name="Path 1047" d="M1305.806,359.579v1.605c-.076,2.446-1.6,4.816-3.975,5.274a10.909,10.909,0,0,1-4.969,0,4.978,4.978,0,0,1-3.9-4.663,21.488,21.488,0,0,1,0-4.433,5.283,5.283,0,0,1,4.433-4.816,12.017,12.017,0,0,1,4.052,0,5.643,5.643,0,0,1,4.433,5.351,12.349,12.349,0,0,0-.077,1.682Zm-2.446,0h0v-1.605a3.312,3.312,0,0,0-3.363-3.21h-1.376a3.3,3.3,0,0,0-3.287,3.21,18.423,18.423,0,0,0,0,2.9,3.28,3.28,0,0,0,3.363,3.287h1.146a3.27,3.27,0,0,0,3.516-3.44Z" transform="translate(-75.445 87.984)" fill="#fff"/>
      <path id="Path_1048" data-name="Path 1048" d="M1252.262,393.259h0a5.97,5.97,0,0,1-5.962-5.962v-1.835a5.97,5.97,0,0,1,5.962-5.962h0a5.97,5.97,0,0,1,5.962,5.962V387.3A5.97,5.97,0,0,1,1252.262,393.259Z" transform="translate(-64.476 81.593)" fill="#4e1f8a"/>
      <ellipse id="Ellipse_39" data-name="Ellipse 39" cx="6.574" cy="7.873" rx="6.574" ry="7.873" transform="translate(1181.747 434.492)" fill="#fff"/>
      <path id="Path_1049" data-name="Path 1049" d="M1240.167,383.924S1238.18,373.07,1251.4,373.3c12.459.153,10.09,10.625,10.09,10.625Z" transform="translate(-63.006 83.055)" fill="#4e1f8a"/>
      <path id="Path_1050" data-name="Path 1050" d="M1260.087,386.555a27.3,27.3,0,0,1-.306,3.516,7.453,7.453,0,0,1-7.262,5.886,17.288,17.288,0,0,1-3.44-.153,7.4,7.4,0,0,1-6.115-6.727,31.229,31.229,0,0,1,0-5.351,7.48,7.48,0,0,1,7.491-6.727,17.434,17.434,0,0,1,3.975.306,7.473,7.473,0,0,1,5.58,7.185v1.987C1260.01,386.555,1260.01,386.555,1260.087,386.555Zm-14.829,0c-.382,5.427,2.6,7.491,7.491,6.956a5.107,5.107,0,0,0,4.739-4.816,40.113,40.113,0,0,0,0-4.281,5.129,5.129,0,0,0-5.121-4.892H1250.3a4.9,4.9,0,0,0-4.739,3.9A20.712,20.712,0,0,0,1245.258,386.555Z" transform="translate(-63.664 82.182)" fill="#fff"/>
    </g>
    <g id="Second_Arrow" data-name="Second Arrow">
      <g id="Group_362" data-name="Group 362" transform="matrix(0.978, 0.208, -0.208, 0.978, 820.27, 435.798)">
        <path id="Path_944" data-name="Path 944" d="M0,20.638,3.973,15.67l4.018-4.892L7.9,11.7c-.457-.917-.959-1.835-1.461-2.752s-.913-1.835-1.37-2.828C4.2,4.2,3.333,2.217,2.6.076L2.694,0a51.767,51.767,0,0,1,3.06,5.2c.5.917.959,1.835,1.416,2.828.457.917.868,1.911,1.324,2.9l.274.535-.365.382-4.2,4.51L0,20.791Z" transform="translate(0 0)" fill="#ccc"/>
      </g>
      <g id="Group_364" data-name="Group 364" transform="matrix(0.978, 0.208, -0.208, 0.978, 781.271, 435.006)">
        <path id="Path_945" data-name="Path 945" d="M0,14.146A59.482,59.482,0,0,1,9.452,6.807,50.753,50.753,0,0,1,19.5,1.992,31.218,31.218,0,0,1,29.956,0c.868,0,1.735.153,2.649.229l1.324.229.639.153.639.153a22.677,22.677,0,0,1,5.114,1.987l-.046.229a47,47,0,0,0-10.32-.612c-1.735.076-3.425.229-5.114.459a29.356,29.356,0,0,0-5.114.994A48.537,48.537,0,0,0,9.681,7.954a52.319,52.319,0,0,0-9.635,6.5Z" transform="translate(0 0)" fill="#b5b5b5"/>
      </g>
    </g>
    <g id="Third_Arrow" data-name="Third Arrow">
      <g id="Group_363" data-name="Group 363" transform="matrix(0.978, 0.208, -0.208, 0.978, 946.27, 465.707)">
        <path id="Path_944-2" data-name="Path 944" d="M0,20.638,3.973,15.67l4.018-4.892L7.9,11.7c-.457-.917-.959-1.835-1.461-2.752s-.913-1.835-1.37-2.828C4.2,4.2,3.333,2.217,2.6.076L2.694,0a51.767,51.767,0,0,1,3.06,5.2c.5.917.959,1.835,1.416,2.828.457.917.868,1.911,1.324,2.9l.274.535-.365.382-4.2,4.51L0,20.791Z" transform="translate(0 0)" fill="#ccc"/>
      </g>
      <g id="Group_365" data-name="Group 365" transform="matrix(0.978, 0.208, -0.208, 0.978, 907.271, 464.915)">
        <path id="Path_945-2" data-name="Path 945" d="M0,14.146A59.482,59.482,0,0,1,9.452,6.807,50.753,50.753,0,0,1,19.5,1.992,31.218,31.218,0,0,1,29.956,0c.868,0,1.735.153,2.649.229l1.324.229.639.153.639.153a22.677,22.677,0,0,1,5.114,1.987l-.046.229a47,47,0,0,0-10.32-.612c-1.735.076-3.425.229-5.114.459a29.356,29.356,0,0,0-5.114.994A48.537,48.537,0,0,0,9.681,7.954a52.319,52.319,0,0,0-9.635,6.5Z" transform="translate(0 0)" fill="#b5b5b5"/>
      </g>
    </g>
    <path id="Path_1051" data-name="Path 1051" d="M201.1,443.3" transform="translate(338.969 65.925)" fill="#fff" stroke="#e5e5e5" stroke-miterlimit="10" stroke-width="1"/>
  </g>
</svg>
