<?xml version="1.0" encoding="utf-8"?>
<!-- Generator: Adobe Illustrator 22.0.1, SVG Export Plug-In . SVG Version: 6.00 Build 0)  -->
<svg version="1.1" id="Layer_1" xmlns="http://www.w3.org/2000/svg" xmlns:xlink="http://www.w3.org/1999/xlink" x="0px" y="0px"
	 viewBox="0 0 1064.8 829.2" style="enable-background:new 0 0 1064.8 829.2;" xml:space="preserve">
<style type="text/css">
	.st0{fill:#0071CE;}
	.st1{fill:#FFFFFF;}
	.st2{fill:#115E8B;}
	.st3{fill:#414042;}
	.st4{fill:#A7A9AC;}
</style>
<g>
	<path class="st3" d="M178.6,631.2c5.4,2.8,9.3,6.5,11.9,11.1c2.5,4.6,3.8,9.7,3.8,15.2c0,5.8-1.4,11.1-4.2,15.8
		c-2.8,4.7-7,8.4-12.5,11.3c-5.5,2.8-12.1,4.3-19.9,4.4c-4.2-0.1-7-1.2-8.4-3.3c-1.5-2.1-2.2-4.2-2.2-6.1V679h10.2
		c5.9,0,10.8-1,14.7-3.1c3.9-2,6.8-4.6,8.6-7.8c1.8-3.2,2.8-6.6,2.8-10.3c0-5.8-2-10.7-6-14.7c-4-4-10.5-6-19.6-6h-22.5v91.5h-10.6
		V627h34C166.6,627,173.2,628.4,178.6,631.2z"/>
	<path class="st3" d="M274.2,728.5h-64V627h63.6v9.9h-53V672h42c0,2.7-0.9,5-2.8,7c-1.9,1.9-4.2,2.9-6.9,2.9h-32.2v36.7h53.4V728.5z
		"/>
	<path class="st3" d="M355.8,725.7c-3.6-1.8-6.6-4.4-9-7.7l-21.9-30l-2.6-3.5c-0.6-0.8-0.9-1.6-0.9-2.5c0-1.2,0.4-2.2,1.2-3.1
		c0.8-0.9,1.9-1.3,3.1-1.3h1.6c8.5,0,14.9-2,19.2-6.1c4.3-4.1,6.5-9,6.5-14.7c0-5.7-2-10.4-6-14.2c-4-3.8-10.5-5.7-19.5-5.7h-23.8
		v91.5h-10.6V627h35.1c7.9,0,14.6,1.3,19.9,4c5.3,2.7,9.3,6.2,11.8,10.7c2.6,4.5,3.8,9.4,3.8,14.8c0,8.3-2.6,15-7.8,20
		c-5.2,5-11.9,8-19.9,9l31.4,43C363.2,728.5,359.4,727.6,355.8,725.7z"/>
	<path class="st3" d="M443.2,690.5c1.3,3.4,2,6.5,2,9.2c0,6-1.5,11.3-4.4,15.7c-3,4.5-7,8-12.1,10.4c-5.1,2.4-10.9,3.6-17.3,3.6
		c-6.3,0-12.1-1.4-17.3-4.1c-5.3-2.8-9.5-6.3-12.8-10.8c-3.2-4.4-5.1-9-5.6-13.9c1-0.3,2-0.4,3.1-0.4c2,0,4,0.6,5.8,1.7
		c1.8,1.1,3.3,2.6,4.4,4.4c2.3,4,5.5,7.1,9.6,9.5c4.1,2.4,8.4,3.6,12.9,3.6c6.3,0,11.7-1.6,16.2-4.8c4.5-3.2,6.8-7.7,6.8-13.7
		c0-5.3-1.8-9.4-5.5-12.3c-3.7-2.9-7.9-4.8-12.6-5.7l-13.5-2.7c-2.9-0.6-5.9-1.6-8.9-3c-3-1.4-5.8-3.3-8.2-5.6
		c-4.7-4.5-7.1-10.3-7.1-17.6c0-5.6,1.5-10.5,4.4-14.8c2.9-4.3,6.9-7.6,11.8-9.9c4.9-2.4,10.2-3.6,15.8-3.6c6.9,0,12.7,1.2,17.5,3.6
		c4.8,2.4,8.5,5.5,11,9.2c2.6,3.7,4.2,7.6,5,11.5l-0.7,0.1c-1.2,0.2-2.1,0.3-2.7,0.3c-1.9,0-3.7-0.4-5.4-1.2c-1.6-0.8-3-2-4.1-3.6
		c-4.9-6.9-11.8-10.3-20.6-10.3c-0.9,0-2.3,0.1-4.2,0.3c-4.7,0.5-8.8,2.4-12.2,5.8c-3.4,3.4-5.1,7.5-5.1,12.2
		c0,3.9,1.2,7.2,3.7,10.1c2.5,2.9,6.2,4.8,11.1,5.7l12.9,2.5c4.1,0.8,7.7,1.8,11,3.2c3.2,1.4,6.2,3.2,8.8,5.7
		C439.6,683.9,441.8,687.1,443.2,690.5z"/>
	<path class="st3" d="M522.9,631.2c5.4,2.8,9.3,6.5,11.9,11.1c2.6,4.6,3.8,9.7,3.8,15.2c0,5.8-1.4,11.1-4.2,15.8
		c-2.8,4.7-7,8.4-12.5,11.3c-5.5,2.8-12.1,4.3-19.9,4.4c-4.2-0.1-7-1.2-8.4-3.3c-1.5-2.1-2.2-4.2-2.2-6.1V679h10.2
		c5.9,0,10.8-1,14.7-3.1c3.9-2,6.8-4.6,8.6-7.8c1.8-3.2,2.8-6.6,2.8-10.3c0-5.8-2-10.7-6-14.7c-4-4-10.5-6-19.6-6h-22.5v91.5h-10.6
		V627h34C511,627,517.6,628.4,522.9,631.2z"/>
	<path class="st3" d="M618.4,728.5h-64V627h63.6v9.9h-53V672h42c0,2.7-1,5-2.8,7c-1.9,1.9-4.2,2.9-6.9,2.9H565v36.7h53.4V728.5z"/>
	<path class="st3" d="M717.8,711.1c-3.7,5.1-8.8,9.5-15.3,13.1c-6.5,3.6-14.3,5.4-23.4,5.4c-9.3,0-17.8-2.2-25.5-6.5
		c-7.7-4.4-13.8-10.4-18.3-18.2c-4.5-7.8-6.8-16.7-6.8-26.6c0-10.1,2.3-19.1,6.9-27c4.6-7.9,10.8-14.1,18.7-18.6
		c7.8-4.4,16.4-6.7,25.5-6.7c8.6,0,16.1,1.7,22.5,5.2c6.4,3.4,11.5,7.7,15.3,12.8c3.8,5.1,6.3,10.2,7.5,15.4l-0.3,0.1
		c-1.3,0.5-2.5,0.7-3.8,0.7c-1.9,0-3.8-0.5-5.5-1.6c-1.7-1.1-3.1-2.5-4.2-4.4c-2.9-5-6.9-9.3-12.1-12.8c-5.2-3.5-11.7-5.3-19.7-5.3
		c-7.2,0-13.8,1.8-19.8,5.3c-6.1,3.5-10.9,8.4-14.4,14.7c-3.6,6.3-5.4,13.4-5.4,21.3c0,7.9,1.7,15.1,5.2,21.5
		c3.4,6.4,8.2,11.4,14.2,15c6,3.6,12.8,5.4,20.4,5.4c10.7,0,18.7-2.8,24.1-8.5c5.4-5.7,9.2-11.9,11.5-18.7l10.3,3.8
		C724.1,700.9,721.5,705.9,717.8,711.1z"/>
	<path class="st3" d="M794,629.9c1.9,1.9,2.9,4.3,2.9,7.1h-33.8v91.5h-10.7V637h-24c-2.8,0-5.2-1-7.1-3c-1.9-2-2.9-4.3-2.9-7h68.5
		C789.7,627,792.1,628,794,629.9z"/>
	<path class="st3" d="M902.9,728.6l-12.9-26h-38.5l0.6-1.3c1.1-2,2.6-3.9,4.6-5.7c2-1.7,4.8-2.7,8.3-2.7h20L864,650.4l-38.8,78.2
		h-11.6l50.5-101.5l50.4,101.5H902.9z"/>
	<path class="st3" d="M929.3,627h10.6v101.5h-10.6V627z"/>
	<path class="st0" d="M679.8,209.5c-149.4-14.2-303.3,29.3-425.5,130.6l-7.1,7.1c-46.7,46.7-46.7,122.5,0,169.3
		c46.7,46.7,122.5,46.7,169.3,0C430,503,439.6,487,445.3,470l0,0l5.8-12.6c32-69.3,130.5-69.3,162.4,0l5.8,12.6l0,0
		c5.7,17,15.3,33,28.9,46.6c46.7,46.7,122.5,46.7,169.2,0c46.8-46.8,46.8-122.5,0-169.3L679.8,209.5z M557.4,367.5
		c-13.8,13.8-36.3,13.8-50.1,0c-13.8-13.8-13.8-36.3,0-50.1c13.8-13.8,36.2-13.8,50.1,0C571.3,331.2,571.3,353.6,557.4,367.5"/>
	<path class="st0" d="M644.5,174.2l-48-48c-35.4-35.4-92.9-35.4-128.3,0L299.5,295C399.5,213,522.2,172.7,644.5,174.2"/>
	<path class="st2" d="M679.8,209.5c-149.4-14.2-303.3,29.3-425.5,130.6l-7.1,7.1c-46.7,46.7-46.7,122.5,0,169.3
		C271.5,183.8,679.8,209.5,679.8,209.5"/>
	<path class="st3" d="M178.6,631.2c5.4,2.8,9.3,6.5,11.9,11.1c2.5,4.6,3.8,9.7,3.8,15.2c0,5.8-1.4,11.1-4.2,15.8
		c-2.8,4.7-7,8.4-12.5,11.3c-5.5,2.8-12.1,4.3-19.9,4.4c-4.2-0.1-7-1.2-8.4-3.3c-1.5-2.1-2.2-4.2-2.2-6.1V679h10.2
		c5.9,0,10.8-1,14.7-3.1c3.9-2,6.8-4.6,8.6-7.8c1.8-3.2,2.8-6.6,2.8-10.3c0-5.8-2-10.7-6-14.7c-4-4-10.5-6-19.6-6h-22.5v91.5h-10.6
		V627h34C166.6,627,173.2,628.4,178.6,631.2z"/>
	<path class="st3" d="M274.2,728.5h-64V627h63.6v9.9h-53V672h42c0,2.7-0.9,5-2.8,7c-1.9,1.9-4.2,2.9-6.9,2.9h-32.2v36.7h53.4V728.5z
		"/>
	<path class="st3" d="M355.8,725.7c-3.6-1.8-6.6-4.4-9-7.7l-21.9-30l-2.6-3.5c-0.6-0.8-0.9-1.6-0.9-2.5c0-1.2,0.4-2.2,1.2-3.1
		c0.8-0.9,1.9-1.3,3.1-1.3h1.6c8.5,0,14.9-2,19.2-6.1c4.3-4.1,6.5-9,6.5-14.7c0-5.7-2-10.4-6-14.2c-4-3.8-10.5-5.7-19.5-5.7h-23.8
		v91.5h-10.6V627h35.1c7.9,0,14.6,1.3,19.9,4c5.3,2.7,9.3,6.2,11.8,10.7c2.6,4.5,3.8,9.4,3.8,14.8c0,8.3-2.6,15-7.8,20
		c-5.2,5-11.9,8-19.9,9l31.4,43C363.2,728.5,359.4,727.6,355.8,725.7z"/>
	<path class="st3" d="M443.2,690.5c1.3,3.4,2,6.5,2,9.2c0,6-1.5,11.3-4.4,15.7c-3,4.5-7,8-12.1,10.4c-5.1,2.4-10.9,3.6-17.3,3.6
		c-6.3,0-12.1-1.4-17.3-4.1c-5.3-2.8-9.5-6.3-12.8-10.8c-3.2-4.4-5.1-9-5.6-13.9c1-0.3,2-0.4,3.1-0.4c2,0,4,0.6,5.8,1.7
		c1.8,1.1,3.3,2.6,4.4,4.4c2.3,4,5.5,7.1,9.6,9.5c4.1,2.4,8.4,3.6,12.9,3.6c6.3,0,11.7-1.6,16.2-4.8c4.5-3.2,6.8-7.7,6.8-13.7
		c0-5.3-1.8-9.4-5.5-12.3c-3.7-2.9-7.9-4.8-12.6-5.7l-13.5-2.7c-2.9-0.6-5.9-1.6-8.9-3c-3-1.4-5.8-3.3-8.2-5.6
		c-4.7-4.5-7.1-10.3-7.1-17.6c0-5.6,1.5-10.5,4.4-14.8c2.9-4.3,6.9-7.6,11.8-9.9c4.9-2.4,10.2-3.6,15.8-3.6c6.9,0,12.7,1.2,17.5,3.6
		c4.8,2.4,8.5,5.5,11,9.2c2.6,3.7,4.2,7.6,5,11.5l-0.7,0.1c-1.2,0.2-2.1,0.3-2.7,0.3c-1.9,0-3.7-0.4-5.4-1.2c-1.6-0.8-3-2-4.1-3.6
		c-4.9-6.9-11.8-10.3-20.6-10.3c-0.9,0-2.3,0.1-4.2,0.3c-4.7,0.5-8.8,2.4-12.2,5.8c-3.4,3.4-5.1,7.5-5.1,12.2
		c0,3.9,1.2,7.2,3.7,10.1c2.5,2.9,6.2,4.8,11.1,5.7l12.9,2.5c4.1,0.8,7.7,1.8,11,3.2c3.2,1.4,6.2,3.2,8.8,5.7
		C439.6,683.9,441.8,687.1,443.2,690.5z"/>
	<path class="st3" d="M522.9,631.2c5.4,2.8,9.3,6.5,11.9,11.1c2.6,4.6,3.8,9.7,3.8,15.2c0,5.8-1.4,11.1-4.2,15.8
		c-2.8,4.7-7,8.4-12.5,11.3c-5.5,2.8-12.1,4.3-19.9,4.4c-4.2-0.1-7-1.2-8.4-3.3c-1.5-2.1-2.2-4.2-2.2-6.1V679h10.2
		c5.9,0,10.8-1,14.7-3.1c3.9-2,6.8-4.6,8.6-7.8c1.8-3.2,2.8-6.6,2.8-10.3c0-5.8-2-10.7-6-14.7c-4-4-10.5-6-19.6-6h-22.5v91.5h-10.6
		V627h34C511,627,517.6,628.4,522.9,631.2z"/>
	<path class="st3" d="M618.4,728.5h-64V627h63.6v9.9h-53V672h42c0,2.7-1,5-2.8,7c-1.9,1.9-4.2,2.9-6.9,2.9H565v36.7h53.4V728.5z"/>
	<path class="st3" d="M717.8,711.1c-3.7,5.1-8.8,9.5-15.3,13.1c-6.5,3.6-14.3,5.4-23.4,5.4c-9.3,0-17.8-2.2-25.5-6.5
		c-7.7-4.4-13.8-10.4-18.3-18.2c-4.5-7.8-6.8-16.7-6.8-26.6c0-10.1,2.3-19.1,6.9-27c4.6-7.9,10.8-14.1,18.7-18.6
		c7.8-4.4,16.4-6.7,25.5-6.7c8.6,0,16.1,1.7,22.5,5.2c6.4,3.4,11.5,7.7,15.3,12.8c3.8,5.1,6.3,10.2,7.5,15.4l-0.3,0.1
		c-1.3,0.5-2.5,0.7-3.8,0.7c-1.9,0-3.8-0.5-5.5-1.6c-1.7-1.1-3.1-2.5-4.2-4.4c-2.9-5-6.9-9.3-12.1-12.8c-5.2-3.5-11.7-5.3-19.7-5.3
		c-7.2,0-13.8,1.8-19.8,5.3c-6.1,3.5-10.9,8.4-14.4,14.7c-3.6,6.3-5.4,13.4-5.4,21.3c0,7.9,1.7,15.1,5.2,21.5
		c3.4,6.4,8.2,11.4,14.2,15c6,3.6,12.8,5.4,20.4,5.4c10.7,0,18.7-2.8,24.1-8.5c5.4-5.7,9.2-11.9,11.5-18.7l10.3,3.8
		C724.1,700.9,721.5,705.9,717.8,711.1z"/>
	<path class="st3" d="M794,629.9c1.9,1.9,2.9,4.3,2.9,7.1h-33.8v91.5h-10.7V637h-24c-2.8,0-5.2-1-7.1-3c-1.9-2-2.9-4.3-2.9-7h68.5
		C789.7,627,792.1,628,794,629.9z"/>
	<path class="st3" d="M902.9,728.6l-12.9-26h-38.5l0.6-1.3c1.1-2,2.6-3.9,4.6-5.7c2-1.7,4.8-2.7,8.3-2.7h20L864,650.4l-38.8,78.2
		h-11.6l50.5-101.5l50.4,101.5H902.9z"/>
	<path class="st3" d="M929.3,627h10.6v101.5h-10.6V627z"/>
	<path class="st0" d="M679.8,209.5c-149.4-14.2-303.3,29.3-425.5,130.6l-7.1,7.1c-46.7,46.7-46.7,122.5,0,169.3
		c46.7,46.7,122.5,46.7,169.3,0C430,503,439.6,487,445.3,470l0,0l5.8-12.6c32-69.3,130.5-69.3,162.4,0l5.8,12.6l0,0
		c5.7,17,15.3,33,28.9,46.6c46.7,46.7,122.5,46.7,169.2,0c46.8-46.8,46.8-122.5,0-169.3L679.8,209.5z M557.4,367.5
		c-13.8,13.8-36.3,13.8-50.1,0c-13.8-13.8-13.8-36.3,0-50.1c13.8-13.8,36.2-13.8,50.1,0C571.3,331.2,571.3,353.6,557.4,367.5"/>
	<path class="st0" d="M644.5,174.2l-48-48c-35.4-35.4-92.9-35.4-128.3,0L299.5,295C399.5,213,522.2,172.7,644.5,174.2"/>
	<path class="st2" d="M679.8,209.5c-149.4-14.2-303.3,29.3-425.5,130.6l-7.1,7.1c-46.7,46.7-46.7,122.5,0,169.3
		C271.5,183.8,679.8,209.5,679.8,209.5"/>
</g>
</svg>
