<?xml version="1.0" encoding="utf-8"?>
<!-- Generator: Adobe Illustrator 22.0.1, SVG Export Plug-In . SVG Version: 6.00 Build 0)  -->
<svg version="1.1" id="Layer_1" xmlns="http://www.w3.org/2000/svg" xmlns:xlink="http://www.w3.org/1999/xlink" x="0px" y="0px"
	 viewBox="0 0 388.9 283.9" style="enable-background:new 0 0 388.9 283.9;" xml:space="preserve">
<style type="text/css">
	.st0{fill:#004D79;}
	.st1{fill:#383838;}
	.st2{fill:#5E5CD8;}
	.st3{fill:#4643C0;}
</style>
<path id="Path_873" class="st0" d="M264.8,111.2c-73.3-7.1-146.3,15.4-203,62.3l-3.4,3.4c-22.3,22.3-22.3,58.5,0,80.8
	C70,98.9,264.8,111.2,264.8,111.2"/>
<g id="Group_236" transform="translate(345.766 490)">
	<path id="Path_884" class="st2" d="M-61.8-423.3c-93.3-9-186.2,19.6-258.4,79.3l-4.3,4.3c-28.4,28.4-28.4,74.4,0,102.8
		c28.4,28.4,74.4,28.4,102.8,0c7.9-7.9,13.9-17.6,17.5-28.3l0,0l3.5-7.7c19.4-42.1,79.2-42.1,98.6,0l3.5,7.7l0,0
		c12.8,38.1,54,58.6,92,45.8s58.6-54,45.8-92c-3.6-10.7-9.6-20.4-17.5-28.3L-61.8-423.3z M-136.1-327.4c-8.4,8.4-22,8.4-30.4,0
		s-8.4-22,0-30.4c8.4-8.4,22-8.4,30.4,0C-127.7-349.4-127.7-335.8-136.1-327.4C-136.1-327.4-136.1-327.4-136.1-327.4"/>
	<path id="Path_885" class="st2" d="M-83.2-444.7l-29.1-29.1c-21.5-21.5-56.4-21.5-77.9,0l-102.5,102.5
		C-233.7-419.8-159.5-445.8-83.2-444.7"/>
	<path id="Path_886" class="st3" d="M-61.8-423.3c-93.3-9-186.2,19.6-258.4,79.3l-4.3,4.3c-28.4,28.4-28.4,74.4,0,102.8
		C-309.7-438.9-61.8-423.3-61.8-423.3"/>
</g>
</svg>
