<svg xmlns="http://www.w3.org/2000/svg" width="9" height="20" viewBox="0 0 9 20"><g><g><path fill="#fff" d="M1.139 2.697c.168-.168.239-.234.407-.356a7.67 7.67 0 0 1 1.274-.739L3.93 3.13a.463.463 0 0 0 .744 0l1.11-1.528c.321.153.83.413 1.274.739.168.122.24.188.407.356.214.347.148 2.39-.112 3.332-.229.835-.911 2.068-.922 2.078-.005.01-.015.026-.02.04-.163.373-.27.765-.31 1.173l-.918 8.99a.095.095 0 0 1-.097.087H3.502a.095.095 0 0 1-.097-.086L2.488 9.32a3.765 3.765 0 0 0-.33-1.213c-.006-.01-.693-1.248-.923-2.083-.244-.938-.31-2.98-.097-3.327zm-.663-.642c-.687.688-.3 3.556-.117 4.218.245.892.897 2.094.993 2.267.123.28.2.57.23.871l.917 8.991c.05.525.489.917 1.018.917h1.585c.524 0 .963-.397 1.019-.917l.917-8.99c.03-.301.106-.597.229-.872.097-.178.749-1.375.993-2.267.178-.662.57-3.53-.117-4.218a4.127 4.127 0 0 0-.52-.458c-.8-.591-1.762-.978-1.803-.999a.454.454 0 0 0-.545.158l-.973 1.32-.958-1.32A.462.462 0 0 0 2.8.598c-.04.016-.998.408-1.803.999-.224.168-.336.27-.52.458z"/></g></g></svg>