<?xml version="1.0" encoding="utf-8"?>
<!-- Generator: Adobe Illustrator 18.1.1, SVG Export Plug-In . SVG Version: 6.00 Build 0)  -->
<svg version="1.1" id="Layer_1" xmlns="http://www.w3.org/2000/svg" xmlns:xlink="http://www.w3.org/1999/xlink" x="0px" y="0px"
	 viewBox="0 0 93 93" enable-background="new 0 0 93 93" xml:space="preserve">
<circle fill="#FFFFFF" stroke="#8168DF" stroke-width="4" stroke-miterlimit="10" cx="46.5" cy="46.5" r="44.4"/>
<g>
	<g>
		<path fill="#465A61" d="M69,71.4H54.3c-0.7,0-1.3-0.6-1.3-1.3s0.6-1.3,1.3-1.3h12v-8.7c0-0.7,0.6-1.3,1.3-1.3s1.3,0.6,1.3,1.3
			v11.3C68.9,71.4,69,71.4,69,71.4z M41,71.4H27.8c-0.7,0-1.3-0.6-1.3-1.3s0.6-1.3,1.3-1.3H41c0.7,0,1.3,0.6,1.3,1.3
			S41.7,71.4,41,71.4z M25.2,60.6c-0.7,0-1.3-0.6-1.3-1.3V46c0-0.7,0.6-1.3,1.3-1.3s1.3,0.6,1.3,1.3v13.3C26.6,60,26,60.6,25.2,60.6
			z M67.7,48.1c-0.7,0-1.3-0.6-1.3-1.3V33.6c0-0.7,0.6-1.3,1.3-1.3s1.3,0.6,1.3,1.3v13.3C69,47.6,68.4,48.1,67.7,48.1z M25.2,33.9
			c-0.7,0-1.3-0.6-1.3-1.3v-6.3h9.5c0,0,0,0,0.1,0c0.7,0,1.3,0.6,1.3,1.3s-0.6,1.3-1.3,1.3h-7v3.6C26.6,33.4,26,33.9,25.2,33.9z
			 M60.2,29H46.9c-0.7,0-1.3-0.6-1.3-1.3s0.6-1.3,1.3-1.3h13.3c0.7,0,1.3,0.6,1.3,1.3S60.9,29,60.2,29z"/>
	</g>
	<g>
		<g>
			<g>
				<path fill="#697C86" d="M27.8,31.4c-0.4,0-0.6-0.1-0.8-0.4l-2.5-2.5c-0.5-0.5-0.5-1.2,0-1.6s1.2-0.5,1.6,0l2.5,2.5
					c0.5,0.5,0.5,1.2,0,1.6C28.4,31.2,28,31.4,27.8,31.4z"/>
			</g>
			<g>
				<path fill="#697C86" d="M59.8,63c-0.4,0-0.6-0.1-0.8-0.4l-5.4-5.3c-0.5-0.5-0.5-1.2,0-1.6s1.2-0.5,1.6,0l5.4,5.3
					c0.5,0.5,0.5,1.2,0,1.6C60.4,62.9,60.1,63,59.8,63z M49.1,52.5c-0.4,0-0.6-0.1-0.8-0.4l-5.4-5.3c-0.5-0.5-0.5-1.2,0-1.6
					s1.2-0.5,1.6,0l5.4,5.3c0.5,0.5,0.5,1.2,0,1.6C49.7,52.4,49.4,52.5,49.1,52.5z M38.5,41.9c-0.4,0-0.6-0.1-0.8-0.4l-5.4-5.3
					c-0.5-0.5-0.5-1.2,0-1.6c0.5-0.5,1.2-0.5,1.6,0l5.4,5.3c0.5,0.5,0.5,1.2,0,1.6C39,41.8,38.7,41.9,38.5,41.9z"/>
			</g>
			<g>
				<path fill="#697C86" d="M67.7,70.8c-0.4,0-0.6-0.1-0.8-0.4L64.4,68c-0.5-0.5-0.5-1.2,0-1.6c0.5-0.5,1.2-0.5,1.6,0l2.5,2.5
					c0.5,0.5,0.5,1.2,0,1.6C68.3,70.7,67.9,70.8,67.7,70.8z"/>
			</g>
		</g>
		<g>
			<g>
				<path fill="#697C86" d="M65.1,31.4c-0.4,0-0.6-0.1-0.8-0.4c-0.5-0.5-0.5-1.2,0-1.6l2.5-2.5c0.5-0.5,1.2-0.5,1.6,0
					c0.5,0.5,0.5,1.2,0,1.6L65.9,31C65.7,31.2,65.5,31.4,65.1,31.4z"/>
			</g>
			<g>
				<path fill="#697C86" d="M33.1,63c-0.4,0-0.6-0.1-0.8-0.4c-0.5-0.5-0.5-1.2,0-1.6l5.4-5.3c0.5-0.5,1.2-0.5,1.6,0s0.5,1.2,0,1.6
					l-5.4,5.3C33.7,62.9,33.4,63,33.1,63z M43.7,52.5c-0.4,0-0.6-0.1-0.8-0.4c-0.5-0.5-0.5-1.2,0-1.6l5.4-5.3c0.5-0.5,1.2-0.5,1.6,0
					s0.5,1.2,0,1.6l-5.4,5.3C44.3,52.4,44.1,52.5,43.7,52.5z M54.4,41.9c-0.4,0-0.6-0.1-0.8-0.4c-0.5-0.5-0.5-1.2,0-1.6l5.4-5.3
					c0.5-0.5,1.2-0.5,1.6,0c0.5,0.5,0.5,1.2,0,1.6l-5.4,5.3C55,41.8,54.8,41.9,54.4,41.9z"/>
			</g>
			<g>
				<path fill="#697C86" d="M25.2,70.8c-0.4,0-0.6-0.1-0.8-0.4c-0.5-0.5-0.5-1.2,0-1.6l2.5-2.5c0.5-0.5,1.2-0.5,1.6,0
					c0.5,0.5,0.5,1.2,0,1.6L26,70.4C25.9,70.7,25.6,70.8,25.2,70.8z"/>
			</g>
		</g>
	</g>
	<path fill="#CC2E43" d="M40.5,59.4v-7.7c0-2.8,2.3-5.2,5.2-5.2h1.6c2.8,0,5.2,2.3,5.2,5.2v7.7H40.5z"/>
	<circle fill="#EC5569" cx="46.4" cy="43.4" r="5.2"/>
	<path fill="#FF7816" d="M19.3,38.1v-7.7c0-2.8,2.3-5.2,5.2-5.2h1.6c2.8,0,5.2,2.3,5.2,5.2v7.7H19.3z"/>
	<circle fill="#FF9F00" cx="25.2" cy="22.1" r="5.2"/>
	<path fill="#FFD400" d="M61.7,38.3v-7.7c0-2.8,2.3-5.2,5.2-5.2h1.6c2.8,0,5.2,2.3,5.2,5.2v7.7H61.7z"/>
	<circle fill="#FF9F00" cx="67.7" cy="22.3" r="5.2"/>
	<path fill="#FFD400" d="M61.7,76.1v-7.7c0-2.8,2.3-5.2,5.2-5.2h1.6c2.8,0,5.2,2.3,5.2,5.2v7.7H61.7z"/>
	<circle fill="#FF9F00" cx="67.7" cy="60.1" r="5.2"/>
	<path fill="#FF7816" d="M19.3,76.1v-7.7c0-2.8,2.3-5.2,5.2-5.2h1.6c2.8,0,5.2,2.3,5.2,5.2v7.7H19.3z"/>
	<circle fill="#FF9F00" cx="25.2" cy="60.1" r="5.2"/>
</g>
</svg>
