<?xml version="1.0" encoding="utf-8"?>
<!-- Generator: Adobe Illustrator 18.1.1, SVG Export Plug-In . SVG Version: 6.00 Build 0)  -->
<svg version="1.1" xmlns="http://www.w3.org/2000/svg" xmlns:xlink="http://www.w3.org/1999/xlink" x="0px" y="0px"
	 viewBox="0 0 50.3 841.9" enable-background="new 0 0 50.3 841.9" xml:space="preserve">
<g id="Layer_1">
	<g>
		<ellipse fill="#C6C6C6" cx="17.9" cy="587.5" rx="1.7" ry="1.7"/>
		<path fill="#C6C6C6" d="M17.9,586c0.8,0,1.4,0.7,1.4,1.5c0,0.8-0.6,1.5-1.4,1.5c-0.8,0-1.4-0.7-1.4-1.5
			C16.4,586.6,17.1,586,17.9,586 M17.9,585.5c-1.1,0-1.9,0.9-1.9,2s0.9,2,1.9,2s1.9-0.9,1.9-2S19,585.5,17.9,585.5L17.9,585.5z"/>
	</g>
	<g>
		<ellipse fill="#C6C6C6" cx="17.9" cy="657.2" rx="1.7" ry="1.7"/>
		<path fill="#C6C6C6" d="M17.9,655.8c0.8,0,1.4,0.7,1.4,1.5c0,0.8-0.6,1.5-1.4,1.5c-0.8,0-1.4-0.7-1.4-1.5
			C16.4,656.4,17.1,655.8,17.9,655.8 M17.9,655.3c-1.1,0-1.9,0.9-1.9,2s0.9,2,1.9,2s1.9-0.9,1.9-2S19,655.3,17.9,655.3L17.9,655.3z"
			/>
	</g>
	<g>
		<ellipse fill="#C6C6C6" cx="17.9" cy="649.3" rx="1.7" ry="1.7"/>
		<path fill="#C6C6C6" d="M17.9,647.8c0.8,0,1.4,0.7,1.4,1.5c0,0.8-0.6,1.5-1.4,1.5c-0.8,0-1.4-0.7-1.4-1.5
			C16.4,648.5,17.1,647.8,17.9,647.8 M17.9,647.3c-1.1,0-1.9,0.9-1.9,2s0.9,2,1.9,2s1.9-0.9,1.9-2S19,647.3,17.9,647.3L17.9,647.3z"
			/>
	</g>
	<g>
		<ellipse fill="#C6C6C6" cx="33.9" cy="726.5" rx="1.7" ry="1.7"/>
		<path fill="#C6C6C6" d="M33.9,725c0.8,0,1.4,0.7,1.4,1.5c0,0.8-0.6,1.5-1.4,1.5c-0.8,0-1.4-0.7-1.4-1.5
			C32.5,725.6,33.1,725,33.9,725 M33.9,724.5c-1.1,0-1.9,0.9-1.9,2c0,1.1,0.9,2,1.9,2s1.9-0.9,1.9-2C35.9,725.4,35,724.5,33.9,724.5
			L33.9,724.5z"/>
	</g>
	<g>
		<ellipse fill="#C6C6C6" cx="17.9" cy="741.1" rx="1.7" ry="1.7"/>
		<path fill="#C6C6C6" d="M17.9,739.6c0.8,0,1.4,0.7,1.4,1.5c0,0.8-0.6,1.5-1.4,1.5c-0.8,0-1.4-0.7-1.4-1.5
			C16.4,740.2,17.1,739.6,17.9,739.6 M17.9,739.1c-1.1,0-1.9,0.9-1.9,2s0.9,2,1.9,2s1.9-0.9,1.9-2S19,739.1,17.9,739.1L17.9,739.1z"
			/>
	</g>
	<g>
		<ellipse fill="#C6C6C6" cx="33.9" cy="741.1" rx="1.7" ry="1.7"/>
		<path fill="#C6C6C6" d="M33.9,739.6c0.8,0,1.4,0.7,1.4,1.5c0,0.8-0.6,1.5-1.4,1.5c-0.8,0-1.4-0.7-1.4-1.5
			C32.5,740.2,33.1,739.6,33.9,739.6 M33.9,739.1c-1.1,0-1.9,0.9-1.9,2s0.9,2,1.9,2s1.9-0.9,1.9-2S35,739.1,33.9,739.1L33.9,739.1z"
			/>
	</g>
	<g>
		<ellipse fill="#C6C6C6" cx="17.9" cy="749.2" rx="1.7" ry="1.7"/>
		<path fill="#C6C6C6" d="M17.9,747.7c0.8,0,1.4,0.7,1.4,1.5c0,0.8-0.6,1.5-1.4,1.5c-0.8,0-1.4-0.7-1.4-1.5
			C16.4,748.4,17.1,747.7,17.9,747.7 M17.9,747.2c-1.1,0-1.9,0.9-1.9,2c0,1.1,0.9,2,1.9,2s1.9-0.9,1.9-2
			C19.8,748.1,19,747.2,17.9,747.2L17.9,747.2z"/>
	</g>
	<g>
		<ellipse fill="#C6C6C6" cx="17.9" cy="764.7" rx="1.7" ry="1.7"/>
		<path fill="#C6C6C6" d="M17.9,763.2c0.8,0,1.4,0.7,1.4,1.5c0,0.8-0.6,1.5-1.4,1.5c-0.8,0-1.4-0.7-1.4-1.5
			C16.4,763.9,17.1,763.2,17.9,763.2 M17.9,762.7c-1.1,0-1.9,0.9-1.9,2c0,1.1,0.9,2,1.9,2s1.9-0.9,1.9-2
			C19.8,763.6,19,762.7,17.9,762.7L17.9,762.7z"/>
	</g>
	<g>
		<ellipse fill="#C6C6C6" cx="17.9" cy="772.8" rx="1.7" ry="1.7"/>
		<path fill="#C6C6C6" d="M17.9,771.4c0.8,0,1.4,0.7,1.4,1.5c0,0.8-0.6,1.5-1.4,1.5c-0.8,0-1.4-0.7-1.4-1.5
			C16.4,772,17.1,771.4,17.9,771.4 M17.9,770.9c-1.1,0-1.9,0.9-1.9,2c0,1.1,0.9,2,1.9,2s1.9-0.9,1.9-2
			C19.8,771.8,19,770.9,17.9,770.9L17.9,770.9z"/>
	</g>
	<g>
		<ellipse fill="#C6C6C6" cx="33.9" cy="772.8" rx="1.7" ry="1.7"/>
		<path fill="#C6C6C6" d="M33.9,771.4c0.8,0,1.4,0.7,1.4,1.5c0,0.8-0.6,1.5-1.4,1.5c-0.8,0-1.4-0.7-1.4-1.5
			C32.5,772,33.1,771.4,33.9,771.4 M33.9,770.9c-1.1,0-1.9,0.9-1.9,2c0,1.1,0.9,2,1.9,2s1.9-0.9,1.9-2
			C35.9,771.8,35,770.9,33.9,770.9L33.9,770.9z"/>
	</g>
	<g>
		<ellipse fill="#C6C6C6" cx="17.9" cy="718.3" rx="1.7" ry="1.7"/>
		<path fill="#C6C6C6" d="M17.9,716.8c0.8,0,1.4,0.7,1.4,1.5c0,0.8-0.6,1.5-1.4,1.5s-1.4-0.7-1.4-1.5
			C16.4,717.5,17.1,716.8,17.9,716.8 M17.9,716.3c-1.1,0-1.9,0.9-1.9,2s0.9,2,1.9,2s1.9-0.9,1.9-2S19,716.3,17.9,716.3L17.9,716.3z"
			/>
	</g>
	<g>
		<ellipse fill="#C6C6C6" cx="17.9" cy="695.4" rx="1.7" ry="1.7"/>
		<path fill="#C6C6C6" d="M17.9,693.9c0.8,0,1.4,0.7,1.4,1.5c0,0.8-0.6,1.5-1.4,1.5s-1.4-0.7-1.4-1.5
			C16.4,694.5,17.1,693.9,17.9,693.9 M17.9,693.4c-1.1,0-1.9,0.9-1.9,2c0,1.1,0.9,2,1.9,2s1.9-0.9,1.9-2
			C19.8,694.3,19,693.4,17.9,693.4L17.9,693.4z"/>
	</g>
	<g>
		<ellipse fill="#C6C6C6" cx="17.9" cy="679.7" rx="1.7" ry="1.7"/>
		<path fill="#C6C6C6" d="M17.9,678.2c0.8,0,1.4,0.7,1.4,1.5c0,0.8-0.6,1.5-1.4,1.5s-1.4-0.7-1.4-1.5
			C16.4,678.8,17.1,678.2,17.9,678.2 M17.9,677.7c-1.1,0-1.9,0.9-1.9,2c0,1.1,0.9,2,1.9,2s1.9-0.9,1.9-2
			C19.8,678.6,19,677.7,17.9,677.7L17.9,677.7z"/>
	</g>
	<g>
		<ellipse fill="#C6C6C6" cx="33.9" cy="633.6" rx="1.7" ry="1.7"/>
		<path fill="#C6C6C6" d="M33.9,632.1c0.8,0,1.4,0.7,1.4,1.5c0,0.8-0.6,1.5-1.4,1.5c-0.8,0-1.4-0.7-1.4-1.5
			C32.5,632.8,33.1,632.1,33.9,632.1 M33.9,631.6c-1.1,0-1.9,0.9-1.9,2s0.9,2,1.9,2s1.9-0.9,1.9-2S35,631.6,33.9,631.6L33.9,631.6z"
			/>
	</g>
	<g>
		<ellipse fill="#C6C6C6" cx="17.9" cy="625.5" rx="1.7" ry="1.7"/>
		<path fill="#C6C6C6" d="M17.9,624c0.8,0,1.4,0.7,1.4,1.5c0,0.8-0.6,1.5-1.4,1.5s-1.4-0.7-1.4-1.5C16.4,624.7,17.1,624,17.9,624
			 M17.9,623.5c-1.1,0-1.9,0.9-1.9,2c0,1.1,0.9,2,1.9,2s1.9-0.9,1.9-2C19.8,624.4,19,623.5,17.9,623.5L17.9,623.5z"/>
	</g>
	<g>
		<ellipse fill="#C6C6C6" cx="17.9" cy="555.8" rx="1.7" ry="1.7"/>
		<path fill="#C6C6C6" d="M17.9,554.4c0.8,0,1.4,0.7,1.4,1.5c0,0.8-0.6,1.5-1.4,1.5s-1.4-0.7-1.4-1.5
			C16.4,555,17.1,554.4,17.9,554.4 M17.9,553.9c-1.1,0-1.9,0.9-1.9,2c0,1.1,0.9,2,1.9,2s1.9-0.9,1.9-2
			C19.8,554.7,19,553.9,17.9,553.9L17.9,553.9z"/>
	</g>
	<g>
		<ellipse fill="#C6C6C6" cx="17.9" cy="703.6" rx="1.7" ry="1.7"/>
		<path fill="#C6C6C6" d="M17.9,702.1c0.8,0,1.4,0.7,1.4,1.5c0,0.8-0.6,1.5-1.4,1.5c-0.8,0-1.4-0.7-1.4-1.5
			C16.4,702.8,17.1,702.1,17.9,702.1 M17.9,701.6c-1.1,0-1.9,0.9-1.9,2c0,1.1,0.9,2,1.9,2s1.9-0.9,1.9-2
			C19.8,702.5,19,701.6,17.9,701.6L17.9,701.6z"/>
	</g>
	<g>
		<ellipse fill="#C6C6C6" cx="33.9" cy="703.6" rx="1.7" ry="1.7"/>
		<path fill="#C6C6C6" d="M33.9,702.1c0.8,0,1.4,0.7,1.4,1.5c0,0.8-0.6,1.5-1.4,1.5c-0.8,0-1.4-0.7-1.4-1.5
			C32.5,702.8,33.1,702.1,33.9,702.1 M33.9,701.6c-1.1,0-1.9,0.9-1.9,2c0,1.1,0.9,2,1.9,2s1.9-0.9,1.9-2
			C35.9,702.5,35,701.6,33.9,701.6L33.9,701.6z"/>
	</g>
	<g>
		<ellipse fill="#C6C6C6" cx="25.9" cy="671.9" rx="1.7" ry="1.7"/>
		<path fill="#C6C6C6" d="M25.9,670.4c0.8,0,1.4,0.7,1.4,1.5c0,0.8-0.6,1.5-1.4,1.5c-0.8,0-1.4-0.7-1.4-1.5
			C24.5,671.1,25.1,670.4,25.9,670.4 M25.9,669.9c-1.1,0-1.9,0.9-1.9,2c0,1.1,0.9,2,1.9,2s1.9-0.9,1.9-2
			C27.9,670.8,27,669.9,25.9,669.9L25.9,669.9z"/>
	</g>
	<g>
		<ellipse fill="#C6C6C6" cx="25.9" cy="726.5" rx="1.7" ry="1.7"/>
		<path fill="#C6C6C6" d="M25.9,725c0.8,0,1.4,0.7,1.4,1.5c0,0.8-0.6,1.5-1.4,1.5c-0.8,0-1.4-0.7-1.4-1.5
			C24.5,725.6,25.1,725,25.9,725 M25.9,724.5c-1.1,0-1.9,0.9-1.9,2c0,1.1,0.9,2,1.9,2c1.1,0,1.9-0.9,1.9-2
			C27.9,725.4,27,724.5,25.9,724.5L25.9,724.5z"/>
	</g>
	<g>
		<ellipse fill="#C6C6C6" cx="25.9" cy="625.5" rx="1.7" ry="1.7"/>
		<path fill="#C6C6C6" d="M25.9,624c0.8,0,1.4,0.7,1.4,1.5c0,0.8-0.6,1.5-1.4,1.5c-0.8,0-1.4-0.7-1.4-1.5
			C24.5,624.7,25.1,624,25.9,624 M25.9,623.5c-1.1,0-1.9,0.9-1.9,2c0,1.1,0.9,2,1.9,2c1.1,0,1.9-0.9,1.9-2
			C27.9,624.4,27,623.5,25.9,623.5L25.9,623.5z"/>
	</g>
	<g>
		<ellipse fill="#C6C6C6" cx="25.9" cy="633.6" rx="1.7" ry="1.7"/>
		<path fill="#C6C6C6" d="M25.9,632.1c0.8,0,1.4,0.7,1.4,1.5c0,0.8-0.6,1.5-1.4,1.5c-0.8,0-1.4-0.7-1.4-1.5
			C24.5,632.8,25.1,632.1,25.9,632.1 M25.9,631.6c-1.1,0-1.9,0.9-1.9,2s0.9,2,1.9,2c1.1,0,1.9-0.9,1.9-2S27,631.6,25.9,631.6
			L25.9,631.6z"/>
	</g>
	<g>
		<ellipse fill="#C6C6C6" cx="25.9" cy="564" rx="1.7" ry="1.7"/>
		<path fill="#C6C6C6" d="M25.9,562.5c0.8,0,1.4,0.7,1.4,1.5c0,0.8-0.6,1.5-1.4,1.5c-0.8,0-1.4-0.7-1.4-1.5
			C24.5,563.2,25.1,562.5,25.9,562.5 M25.9,562c-1.1,0-1.9,0.9-1.9,2s0.9,2,1.9,2c1.1,0,1.9-0.9,1.9-2S27,562,25.9,562L25.9,562z"/>
	</g>
	<g>
		<ellipse fill="#C6C6C6" cx="25.9" cy="703.6" rx="1.7" ry="1.7"/>
		<path fill="#C6C6C6" d="M25.9,702.1c0.8,0,1.4,0.7,1.4,1.5c0,0.8-0.6,1.5-1.4,1.5c-0.8,0-1.4-0.7-1.4-1.5
			C24.5,702.8,25.1,702.1,25.9,702.1 M25.9,701.6c-1.1,0-1.9,0.9-1.9,2c0,1.1,0.9,2,1.9,2c1.1,0,1.9-0.9,1.9-2
			C27.9,702.5,27,701.6,25.9,701.6L25.9,701.6z"/>
	</g>
	<g>
		<ellipse fill="#C6C6C6" cx="25.9" cy="741.1" rx="1.7" ry="1.7"/>
		<path fill="#C6C6C6" d="M25.9,739.6c0.8,0,1.4,0.7,1.4,1.5c0,0.8-0.6,1.5-1.4,1.5c-0.8,0-1.4-0.7-1.4-1.5
			C24.5,740.2,25.1,739.6,25.9,739.6 M25.9,739.1c-1.1,0-1.9,0.9-1.9,2s0.9,2,1.9,2c1.1,0,1.9-0.9,1.9-2S27,739.1,25.9,739.1
			L25.9,739.1z"/>
	</g>
	<g>
		<ellipse fill="#C6C6C6" cx="25.9" cy="749.2" rx="1.7" ry="1.7"/>
		<path fill="#C6C6C6" d="M25.9,747.7c0.8,0,1.4,0.7,1.4,1.5c0,0.8-0.6,1.5-1.4,1.5c-0.8,0-1.4-0.7-1.4-1.5
			C24.5,748.4,25.1,747.7,25.9,747.7 M25.9,747.2c-1.1,0-1.9,0.9-1.9,2c0,1.1,0.9,2,1.9,2c1.1,0,1.9-0.9,1.9-2
			C27.9,748.1,27,747.2,25.9,747.2L25.9,747.2z"/>
	</g>
	<g>
		<ellipse fill="#C6C6C6" cx="25.9" cy="772.8" rx="1.7" ry="1.7"/>
		<path fill="#C6C6C6" d="M25.9,771.4c0.8,0,1.4,0.7,1.4,1.5c0,0.8-0.6,1.5-1.4,1.5c-0.8,0-1.4-0.7-1.4-1.5
			C24.5,772,25.1,771.4,25.9,771.4 M25.9,770.9c-1.1,0-1.9,0.9-1.9,2c0,1.1,0.9,2,1.9,2c1.1,0,1.9-0.9,1.9-2
			C27.9,771.8,27,770.9,25.9,770.9L25.9,770.9z"/>
	</g>
	<g>
		<ellipse fill="#C6C6C6" cx="17.9" cy="349.7" rx="1.7" ry="1.7"/>
		<path fill="#C6C6C6" d="M17.9,348.2c0.8,0,1.4,0.7,1.4,1.5c0,0.8-0.6,1.5-1.4,1.5c-0.8,0-1.4-0.7-1.4-1.5
			C16.4,348.9,17.1,348.2,17.9,348.2 M17.9,347.7c-1.1,0-1.9,0.9-1.9,2c0,1.1,0.9,2,1.9,2s1.9-0.9,1.9-2
			C19.8,348.6,19,347.7,17.9,347.7L17.9,347.7z"/>
	</g>
	<g>
		<ellipse fill="#C6C6C6" cx="17.9" cy="419.5" rx="1.7" ry="1.7"/>
		<path fill="#C6C6C6" d="M17.9,418c0.8,0,1.4,0.7,1.4,1.5c0,0.8-0.6,1.5-1.4,1.5c-0.8,0-1.4-0.7-1.4-1.5
			C16.4,418.7,17.1,418,17.9,418 M17.9,417.5c-1.1,0-1.9,0.9-1.9,2s0.9,2,1.9,2s1.9-0.9,1.9-2S19,417.5,17.9,417.5L17.9,417.5z"/>
	</g>
	<g>
		<ellipse fill="#C6C6C6" cx="17.9" cy="411.5" rx="1.7" ry="1.7"/>
		<path fill="#C6C6C6" d="M17.9,410c0.8,0,1.4,0.7,1.4,1.5c0,0.8-0.6,1.5-1.4,1.5c-0.8,0-1.4-0.7-1.4-1.5
			C16.4,410.7,17.1,410,17.9,410 M17.9,409.5c-1.1,0-1.9,0.9-1.9,2s0.9,2,1.9,2s1.9-0.9,1.9-2S19,409.5,17.9,409.5L17.9,409.5z"/>
	</g>
	<g>
		<ellipse fill="#C6C6C6" cx="33.9" cy="488.7" rx="1.7" ry="1.7"/>
		<path fill="#C6C6C6" d="M33.9,487.2c0.8,0,1.4,0.7,1.4,1.5c0,0.8-0.6,1.5-1.4,1.5c-0.8,0-1.4-0.7-1.4-1.5
			C32.5,487.9,33.1,487.2,33.9,487.2 M33.9,486.7c-1.1,0-1.9,0.9-1.9,2c0,1.1,0.9,2,1.9,2s1.9-0.9,1.9-2
			C35.9,487.6,35,486.7,33.9,486.7L33.9,486.7z"/>
	</g>
	<g>
		<ellipse fill="#C6C6C6" cx="17.9" cy="503.3" rx="1.7" ry="1.7"/>
		<path fill="#C6C6C6" d="M17.9,501.8c0.8,0,1.4,0.7,1.4,1.5c0,0.8-0.6,1.5-1.4,1.5c-0.8,0-1.4-0.7-1.4-1.5
			C16.4,502.5,17.1,501.8,17.9,501.8 M17.9,501.3c-1.1,0-1.9,0.9-1.9,2s0.9,2,1.9,2s1.9-0.9,1.9-2S19,501.3,17.9,501.3L17.9,501.3z"
			/>
	</g>
	<g>
		<ellipse fill="#C6C6C6" cx="33.9" cy="503.3" rx="1.7" ry="1.7"/>
		<path fill="#C6C6C6" d="M33.9,501.8c0.8,0,1.4,0.7,1.4,1.5c0,0.8-0.6,1.5-1.4,1.5c-0.8,0-1.4-0.7-1.4-1.5
			C32.5,502.5,33.1,501.8,33.9,501.8 M33.9,501.3c-1.1,0-1.9,0.9-1.9,2s0.9,2,1.9,2s1.9-0.9,1.9-2S35,501.3,33.9,501.3L33.9,501.3z"
			/>
	</g>
	<g>
		<ellipse fill="#C6C6C6" cx="17.9" cy="511.4" rx="1.7" ry="1.7"/>
		<path fill="#C6C6C6" d="M17.9,509.9c0.8,0,1.4,0.7,1.4,1.5c0,0.8-0.6,1.5-1.4,1.5c-0.8,0-1.4-0.7-1.4-1.5
			C16.4,510.6,17.1,509.9,17.9,509.9 M17.9,509.4c-1.1,0-1.9,0.9-1.9,2s0.9,2,1.9,2s1.9-0.9,1.9-2S19,509.4,17.9,509.4L17.9,509.4z"
			/>
	</g>
	<g>
		<ellipse fill="#C6C6C6" cx="17.9" cy="526.9" rx="1.7" ry="1.7"/>
		<path fill="#C6C6C6" d="M17.9,525.4c0.8,0,1.4,0.7,1.4,1.5c0,0.8-0.6,1.5-1.4,1.5c-0.8,0-1.4-0.7-1.4-1.5
			C16.4,526.1,17.1,525.4,17.9,525.4 M17.9,524.9c-1.1,0-1.9,0.9-1.9,2c0,1.1,0.9,2,1.9,2s1.9-0.9,1.9-2
			C19.8,525.8,19,524.9,17.9,524.9L17.9,524.9z"/>
	</g>
	<g>
		<ellipse fill="#C6C6C6" cx="17.9" cy="535.1" rx="1.7" ry="1.7"/>
		<path fill="#C6C6C6" d="M17.9,533.6c0.8,0,1.4,0.7,1.4,1.5c0,0.8-0.6,1.5-1.4,1.5c-0.8,0-1.4-0.7-1.4-1.5
			C16.4,534.2,17.1,533.6,17.9,533.6 M17.9,533.1c-1.1,0-1.9,0.9-1.9,2s0.9,2,1.9,2s1.9-0.9,1.9-2S19,533.1,17.9,533.1L17.9,533.1z"
			/>
	</g>
	<g>
		<ellipse fill="#C6C6C6" cx="33.9" cy="535.1" rx="1.7" ry="1.7"/>
		<path fill="#C6C6C6" d="M33.9,533.6c0.8,0,1.4,0.7,1.4,1.5c0,0.8-0.6,1.5-1.4,1.5c-0.8,0-1.4-0.7-1.4-1.5
			C32.5,534.2,33.1,533.6,33.9,533.6 M33.9,533.1c-1.1,0-1.9,0.9-1.9,2s0.9,2,1.9,2s1.9-0.9,1.9-2S35,533.1,33.9,533.1L33.9,533.1z"
			/>
	</g>
	<g>
		<ellipse fill="#C6C6C6" cx="17.9" cy="480.5" rx="1.7" ry="1.7"/>
		<path fill="#C6C6C6" d="M17.9,479.1c0.8,0,1.4,0.7,1.4,1.5c0,0.8-0.6,1.5-1.4,1.5s-1.4-0.7-1.4-1.5
			C16.4,479.7,17.1,479.1,17.9,479.1 M17.9,478.6c-1.1,0-1.9,0.9-1.9,2c0,1.1,0.9,2,1.9,2s1.9-0.9,1.9-2
			C19.8,479.4,19,478.6,17.9,478.6L17.9,478.6z"/>
	</g>
	<g>
		<ellipse fill="#C6C6C6" cx="17.9" cy="457.6" rx="1.7" ry="1.7"/>
		<path fill="#C6C6C6" d="M17.9,456.1c0.8,0,1.4,0.7,1.4,1.5c0,0.8-0.6,1.5-1.4,1.5s-1.4-0.7-1.4-1.5
			C16.4,456.8,17.1,456.1,17.9,456.1 M17.9,455.6c-1.1,0-1.9,0.9-1.9,2c0,1.1,0.9,2,1.9,2s1.9-0.9,1.9-2
			C19.8,456.5,19,455.6,17.9,455.6L17.9,455.6z"/>
	</g>
	<g>
		<ellipse fill="#C6C6C6" cx="17.9" cy="441.9" rx="1.7" ry="1.7"/>
		<path fill="#C6C6C6" d="M17.9,440.4c0.8,0,1.4,0.7,1.4,1.5c0,0.8-0.6,1.5-1.4,1.5s-1.4-0.7-1.4-1.5
			C16.4,441.1,17.1,440.4,17.9,440.4 M17.9,439.9c-1.1,0-1.9,0.9-1.9,2c0,1.1,0.9,2,1.9,2s1.9-0.9,1.9-2
			C19.8,440.8,19,439.9,17.9,439.9L17.9,439.9z"/>
	</g>
	<g>
		<ellipse fill="#C6C6C6" cx="33.9" cy="395.8" rx="1.7" ry="1.7"/>
		<path fill="#C6C6C6" d="M33.9,394.4c0.8,0,1.4,0.7,1.4,1.5c0,0.8-0.6,1.5-1.4,1.5c-0.8,0-1.4-0.7-1.4-1.5
			C32.5,395,33.1,394.4,33.9,394.4 M33.9,393.9c-1.1,0-1.9,0.9-1.9,2s0.9,2,1.9,2s1.9-0.9,1.9-2S35,393.9,33.9,393.9L33.9,393.9z"/>
	</g>
	<g>
		<ellipse fill="#C6C6C6" cx="17.9" cy="387.7" rx="1.7" ry="1.7"/>
		<path fill="#C6C6C6" d="M17.9,386.2c0.8,0,1.4,0.7,1.4,1.5c0,0.8-0.6,1.5-1.4,1.5s-1.4-0.7-1.4-1.5
			C16.4,386.9,17.1,386.2,17.9,386.2 M17.9,385.7c-1.1,0-1.9,0.9-1.9,2c0,1.1,0.9,2,1.9,2s1.9-0.9,1.9-2
			C19.8,386.6,19,385.7,17.9,385.7L17.9,385.7z"/>
	</g>
	<g>
		<ellipse fill="#C6C6C6" cx="17.9" cy="318.1" rx="1.7" ry="1.7"/>
		<path fill="#C6C6C6" d="M17.9,316.6c0.8,0,1.4,0.7,1.4,1.5c0,0.8-0.6,1.5-1.4,1.5s-1.4-0.7-1.4-1.5
			C16.4,317.2,17.1,316.6,17.9,316.6 M17.9,316.1c-1.1,0-1.9,0.9-1.9,2c0,1.1,0.9,2,1.9,2s1.9-0.9,1.9-2
			C19.8,317,19,316.1,17.9,316.1L17.9,316.1z"/>
	</g>
	<g>
		<ellipse fill="#C6C6C6" cx="17.9" cy="465.8" rx="1.7" ry="1.7"/>
		<path fill="#C6C6C6" d="M17.9,464.3c0.8,0,1.4,0.7,1.4,1.5c0,0.8-0.6,1.5-1.4,1.5c-0.8,0-1.4-0.7-1.4-1.5
			C16.4,465,17.1,464.3,17.9,464.3 M17.9,463.8c-1.1,0-1.9,0.9-1.9,2c0,1.1,0.9,2,1.9,2s1.9-0.9,1.9-2
			C19.8,464.7,19,463.8,17.9,463.8L17.9,463.8z"/>
	</g>
	<g>
		<ellipse fill="#C6C6C6" cx="33.9" cy="465.8" rx="1.7" ry="1.7"/>
		<path fill="#C6C6C6" d="M33.9,464.3c0.8,0,1.4,0.7,1.4,1.5c0,0.8-0.6,1.5-1.4,1.5c-0.8,0-1.4-0.7-1.4-1.5
			C32.5,465,33.1,464.3,33.9,464.3 M33.9,463.8c-1.1,0-1.9,0.9-1.9,2c0,1.1,0.9,2,1.9,2s1.9-0.9,1.9-2
			C35.9,464.7,35,463.8,33.9,463.8L33.9,463.8z"/>
	</g>
	<g>
		<ellipse fill="#C6C6C6" cx="25.9" cy="434.1" rx="1.7" ry="1.7"/>
		<path fill="#C6C6C6" d="M25.9,432.6c0.8,0,1.4,0.7,1.4,1.5c0,0.8-0.6,1.5-1.4,1.5c-0.8,0-1.4-0.7-1.4-1.5
			C24.5,433.3,25.1,432.6,25.9,432.6 M25.9,432.1c-1.1,0-1.9,0.9-1.9,2c0,1.1,0.9,2,1.9,2s1.9-0.9,1.9-2
			C27.9,433,27,432.1,25.9,432.1L25.9,432.1z"/>
	</g>
	<g>
		<ellipse fill="#C6C6C6" cx="25.9" cy="488.7" rx="1.7" ry="1.7"/>
		<path fill="#C6C6C6" d="M25.9,487.2c0.8,0,1.4,0.7,1.4,1.5c0,0.8-0.6,1.5-1.4,1.5c-0.8,0-1.4-0.7-1.4-1.5
			C24.5,487.9,25.1,487.2,25.9,487.2 M25.9,486.7c-1.1,0-1.9,0.9-1.9,2c0,1.1,0.9,2,1.9,2c1.1,0,1.9-0.9,1.9-2
			C27.9,487.6,27,486.7,25.9,486.7L25.9,486.7z"/>
	</g>
	<g>
		<ellipse fill="#C6C6C6" cx="25.9" cy="387.7" rx="1.7" ry="1.7"/>
		<path fill="#C6C6C6" d="M25.9,386.2c0.8,0,1.4,0.7,1.4,1.5c0,0.8-0.6,1.5-1.4,1.5c-0.8,0-1.4-0.7-1.4-1.5
			C24.5,386.9,25.1,386.2,25.9,386.2 M25.9,385.7c-1.1,0-1.9,0.9-1.9,2c0,1.1,0.9,2,1.9,2c1.1,0,1.9-0.9,1.9-2
			C27.9,386.6,27,385.7,25.9,385.7L25.9,385.7z"/>
	</g>
	<g>
		<ellipse fill="#C6C6C6" cx="25.9" cy="395.8" rx="1.7" ry="1.7"/>
		<path fill="#C6C6C6" d="M25.9,394.4c0.8,0,1.4,0.7,1.4,1.5c0,0.8-0.6,1.5-1.4,1.5c-0.8,0-1.4-0.7-1.4-1.5
			C24.5,395,25.1,394.4,25.9,394.4 M25.9,393.9c-1.1,0-1.9,0.9-1.9,2s0.9,2,1.9,2c1.1,0,1.9-0.9,1.9-2S27,393.9,25.9,393.9
			L25.9,393.9z"/>
	</g>
	<g>
		<ellipse fill="#C6C6C6" cx="25.9" cy="326.2" rx="1.7" ry="1.7"/>
		<path fill="#C6C6C6" d="M25.9,324.7c0.8,0,1.4,0.7,1.4,1.5c0,0.8-0.6,1.5-1.4,1.5c-0.8,0-1.4-0.7-1.4-1.5
			C24.5,325.4,25.1,324.7,25.9,324.7 M25.9,324.2c-1.1,0-1.9,0.9-1.9,2s0.9,2,1.9,2c1.1,0,1.9-0.9,1.9-2S27,324.2,25.9,324.2
			L25.9,324.2z"/>
	</g>
	<g>
		<ellipse fill="#C6C6C6" cx="25.9" cy="465.8" rx="1.7" ry="1.7"/>
		<path fill="#C6C6C6" d="M25.9,464.3c0.8,0,1.4,0.7,1.4,1.5c0,0.8-0.6,1.5-1.4,1.5c-0.8,0-1.4-0.7-1.4-1.5
			C24.5,465,25.1,464.3,25.9,464.3 M25.9,463.8c-1.1,0-1.9,0.9-1.9,2c0,1.1,0.9,2,1.9,2c1.1,0,1.9-0.9,1.9-2
			C27.9,464.7,27,463.8,25.9,463.8L25.9,463.8z"/>
	</g>
	<g>
		<ellipse fill="#C6C6C6" cx="25.9" cy="503.3" rx="1.7" ry="1.7"/>
		<path fill="#C6C6C6" d="M25.9,501.8c0.8,0,1.4,0.7,1.4,1.5c0,0.8-0.6,1.5-1.4,1.5c-0.8,0-1.4-0.7-1.4-1.5
			C24.5,502.5,25.1,501.8,25.9,501.8 M25.9,501.3c-1.1,0-1.9,0.9-1.9,2s0.9,2,1.9,2c1.1,0,1.9-0.9,1.9-2S27,501.3,25.9,501.3
			L25.9,501.3z"/>
	</g>
	<g>
		<ellipse fill="#C6C6C6" cx="25.9" cy="511.4" rx="1.7" ry="1.7"/>
		<path fill="#C6C6C6" d="M25.9,509.9c0.8,0,1.4,0.7,1.4,1.5c0,0.8-0.6,1.5-1.4,1.5c-0.8,0-1.4-0.7-1.4-1.5
			C24.5,510.6,25.1,509.9,25.9,509.9 M25.9,509.4c-1.1,0-1.9,0.9-1.9,2s0.9,2,1.9,2c1.1,0,1.9-0.9,1.9-2S27,509.4,25.9,509.4
			L25.9,509.4z"/>
	</g>
	<g>
		<ellipse fill="#C6C6C6" cx="25.9" cy="535.1" rx="1.7" ry="1.7"/>
		<path fill="#C6C6C6" d="M25.9,533.6c0.8,0,1.4,0.7,1.4,1.5c0,0.8-0.6,1.5-1.4,1.5c-0.8,0-1.4-0.7-1.4-1.5
			C24.5,534.2,25.1,533.6,25.9,533.6 M25.9,533.1c-1.1,0-1.9,0.9-1.9,2s0.9,2,1.9,2c1.1,0,1.9-0.9,1.9-2S27,533.1,25.9,533.1
			L25.9,533.1z"/>
	</g>
	<g>
		<ellipse fill="#C6C6C6" cx="17.9" cy="111.9" rx="1.7" ry="1.7"/>
		<path fill="#C6C6C6" d="M17.9,110.4c0.8,0,1.4,0.7,1.4,1.5c0,0.8-0.6,1.5-1.4,1.5c-0.8,0-1.4-0.7-1.4-1.5
			C16.4,111.1,17.1,110.4,17.9,110.4 M17.9,109.9c-1.1,0-1.9,0.9-1.9,2c0,1.1,0.9,2,1.9,2s1.9-0.9,1.9-2
			C19.8,110.8,19,109.9,17.9,109.9L17.9,109.9z"/>
	</g>
	<g>
		<ellipse fill="#C6C6C6" cx="17.9" cy="181.7" rx="1.7" ry="1.7"/>
		<path fill="#C6C6C6" d="M17.9,180.2c0.8,0,1.4,0.7,1.4,1.5c0,0.8-0.6,1.5-1.4,1.5c-0.8,0-1.4-0.7-1.4-1.5
			C16.4,180.9,17.1,180.2,17.9,180.2 M17.9,179.7c-1.1,0-1.9,0.9-1.9,2c0,1.1,0.9,2,1.9,2s1.9-0.9,1.9-2
			C19.8,180.6,19,179.7,17.9,179.7L17.9,179.7z"/>
	</g>
	<g>
		<ellipse fill="#C6C6C6" cx="17.9" cy="173.7" rx="1.7" ry="1.7"/>
		<path fill="#C6C6C6" d="M17.9,172.2c0.8,0,1.4,0.7,1.4,1.5c0,0.8-0.6,1.5-1.4,1.5c-0.8,0-1.4-0.7-1.4-1.5
			C16.4,172.9,17.1,172.2,17.9,172.2 M17.9,171.7c-1.1,0-1.9,0.9-1.9,2c0,1.1,0.9,2,1.9,2s1.9-0.9,1.9-2
			C19.8,172.6,19,171.7,17.9,171.7L17.9,171.7z"/>
	</g>
	<g>
		<ellipse fill="#C6C6C6" cx="33.9" cy="250.9" rx="1.7" ry="1.7"/>
		<path fill="#C6C6C6" d="M33.9,249.4c0.8,0,1.4,0.7,1.4,1.5c0,0.8-0.6,1.5-1.4,1.5c-0.8,0-1.4-0.7-1.4-1.5
			C32.5,250.1,33.1,249.4,33.9,249.4 M33.9,248.9c-1.1,0-1.9,0.9-1.9,2c0,1.1,0.9,2,1.9,2s1.9-0.9,1.9-2
			C35.9,249.8,35,248.9,33.9,248.9L33.9,248.9z"/>
	</g>
	<g>
		<ellipse fill="#C6C6C6" cx="17.9" cy="265.5" rx="1.7" ry="1.7"/>
		<path fill="#C6C6C6" d="M17.9,264c0.8,0,1.4,0.7,1.4,1.5c0,0.8-0.6,1.5-1.4,1.5c-0.8,0-1.4-0.7-1.4-1.5
			C16.4,264.7,17.1,264,17.9,264 M17.9,263.5c-1.1,0-1.9,0.9-1.9,2c0,1.1,0.9,2,1.9,2s1.9-0.9,1.9-2C19.8,264.4,19,263.5,17.9,263.5
			L17.9,263.5z"/>
	</g>
	<g>
		<ellipse fill="#C6C6C6" cx="33.9" cy="265.5" rx="1.7" ry="1.7"/>
		<path fill="#C6C6C6" d="M33.9,264c0.8,0,1.4,0.7,1.4,1.5c0,0.8-0.6,1.5-1.4,1.5c-0.8,0-1.4-0.7-1.4-1.5
			C32.5,264.7,33.1,264,33.9,264 M33.9,263.5c-1.1,0-1.9,0.9-1.9,2c0,1.1,0.9,2,1.9,2s1.9-0.9,1.9-2C35.9,264.4,35,263.5,33.9,263.5
			L33.9,263.5z"/>
	</g>
	<g>
		<ellipse fill="#C6C6C6" cx="17.9" cy="273.6" rx="1.7" ry="1.7"/>
		<path fill="#C6C6C6" d="M17.9,272.1c0.8,0,1.4,0.7,1.4,1.5c0,0.8-0.6,1.5-1.4,1.5c-0.8,0-1.4-0.7-1.4-1.5
			C16.4,272.8,17.1,272.1,17.9,272.1 M17.9,271.6c-1.1,0-1.9,0.9-1.9,2c0,1.1,0.9,2,1.9,2s1.9-0.9,1.9-2
			C19.8,272.5,19,271.6,17.9,271.6L17.9,271.6z"/>
	</g>
	<g>
		<ellipse fill="#C6C6C6" cx="17.9" cy="289.1" rx="1.7" ry="1.7"/>
		<path fill="#C6C6C6" d="M17.9,287.7c0.8,0,1.4,0.7,1.4,1.5c0,0.8-0.6,1.5-1.4,1.5c-0.8,0-1.4-0.7-1.4-1.5
			C16.4,288.3,17.1,287.7,17.9,287.7 M17.9,287.2c-1.1,0-1.9,0.9-1.9,2c0,1.1,0.9,2,1.9,2s1.9-0.9,1.9-2
			C19.8,288.1,19,287.2,17.9,287.2L17.9,287.2z"/>
	</g>
	<g>
		<ellipse fill="#C6C6C6" cx="17.9" cy="297.3" rx="1.7" ry="1.7"/>
		<path fill="#C6C6C6" d="M17.9,295.8c0.8,0,1.4,0.7,1.4,1.5c0,0.8-0.6,1.5-1.4,1.5c-0.8,0-1.4-0.7-1.4-1.5
			C16.4,296.5,17.1,295.8,17.9,295.8 M17.9,295.3c-1.1,0-1.9,0.9-1.9,2s0.9,2,1.9,2s1.9-0.9,1.9-2S19,295.3,17.9,295.3L17.9,295.3z"
			/>
	</g>
	<g>
		<ellipse fill="#C6C6C6" cx="33.9" cy="297.3" rx="1.7" ry="1.7"/>
		<path fill="#C6C6C6" d="M33.9,295.8c0.8,0,1.4,0.7,1.4,1.5c0,0.8-0.6,1.5-1.4,1.5c-0.8,0-1.4-0.7-1.4-1.5
			C32.5,296.5,33.1,295.8,33.9,295.8 M33.9,295.3c-1.1,0-1.9,0.9-1.9,2s0.9,2,1.9,2s1.9-0.9,1.9-2S35,295.3,33.9,295.3L33.9,295.3z"
			/>
	</g>
	<g>
		<ellipse fill="#C6C6C6" cx="17.9" cy="242.8" rx="1.7" ry="1.7"/>
		<path fill="#C6C6C6" d="M17.9,241.3c0.8,0,1.4,0.7,1.4,1.5c0,0.8-0.6,1.5-1.4,1.5s-1.4-0.7-1.4-1.5
			C16.4,241.9,17.1,241.3,17.9,241.3 M17.9,240.8c-1.1,0-1.9,0.9-1.9,2s0.9,2,1.9,2s1.9-0.9,1.9-2S19,240.8,17.9,240.8L17.9,240.8z"
			/>
	</g>
	<g>
		<ellipse fill="#C6C6C6" cx="17.9" cy="219.8" rx="1.7" ry="1.7"/>
		<path fill="#C6C6C6" d="M17.9,218.3c0.8,0,1.4,0.7,1.4,1.5c0,0.8-0.6,1.5-1.4,1.5s-1.4-0.7-1.4-1.5
			C16.4,219,17.1,218.3,17.9,218.3 M17.9,217.8c-1.1,0-1.9,0.9-1.9,2c0,1.1,0.9,2,1.9,2s1.9-0.9,1.9-2
			C19.8,218.7,19,217.8,17.9,217.8L17.9,217.8z"/>
	</g>
	<g>
		<ellipse fill="#C6C6C6" cx="17.9" cy="204.1" rx="1.7" ry="1.7"/>
		<path fill="#C6C6C6" d="M17.9,202.6c0.8,0,1.4,0.7,1.4,1.5c0,0.8-0.6,1.5-1.4,1.5s-1.4-0.7-1.4-1.5
			C16.4,203.3,17.1,202.6,17.9,202.6 M17.9,202.1c-1.1,0-1.9,0.9-1.9,2c0,1.1,0.9,2,1.9,2s1.9-0.9,1.9-2
			C19.8,203,19,202.1,17.9,202.1L17.9,202.1z"/>
	</g>
	<g>
		<ellipse fill="#C6C6C6" cx="33.9" cy="158.1" rx="1.7" ry="1.7"/>
		<path fill="#C6C6C6" d="M33.9,156.6c0.8,0,1.4,0.7,1.4,1.5c0,0.8-0.6,1.5-1.4,1.5c-0.8,0-1.4-0.7-1.4-1.5
			C32.5,157.2,33.1,156.6,33.9,156.6 M33.9,156.1c-1.1,0-1.9,0.9-1.9,2c0,1.1,0.9,2,1.9,2s1.9-0.9,1.9-2
			C35.9,157,35,156.1,33.9,156.1L33.9,156.1z"/>
	</g>
	<g>
		<ellipse fill="#C6C6C6" cx="17.9" cy="149.9" rx="1.7" ry="1.7"/>
		<path fill="#C6C6C6" d="M17.9,148.5c0.8,0,1.4,0.7,1.4,1.5c0,0.8-0.6,1.5-1.4,1.5s-1.4-0.7-1.4-1.5
			C16.4,149.1,17.1,148.5,17.9,148.5 M17.9,148c-1.1,0-1.9,0.9-1.9,2s0.9,2,1.9,2s1.9-0.9,1.9-2S19,148,17.9,148L17.9,148z"/>
	</g>
	<g>
		<ellipse fill="#C6C6C6" cx="17.9" cy="80.3" rx="1.7" ry="1.7"/>
		<path fill="#C6C6C6" d="M17.9,78.8c0.8,0,1.4,0.7,1.4,1.5c0,0.8-0.6,1.5-1.4,1.5s-1.4-0.7-1.4-1.5C16.4,79.5,17.1,78.8,17.9,78.8
			 M17.9,78.3c-1.1,0-1.9,0.9-1.9,2s0.9,2,1.9,2s1.9-0.9,1.9-2S19,78.3,17.9,78.3L17.9,78.3z"/>
	</g>
	<g>
		<ellipse fill="#C6C6C6" cx="17.9" cy="228" rx="1.7" ry="1.7"/>
		<path fill="#C6C6C6" d="M17.9,226.6c0.8,0,1.4,0.7,1.4,1.5c0,0.8-0.6,1.5-1.4,1.5c-0.8,0-1.4-0.7-1.4-1.5
			C16.4,227.2,17.1,226.6,17.9,226.6 M17.9,226.1c-1.1,0-1.9,0.9-1.9,2c0,1.1,0.9,2,1.9,2s1.9-0.9,1.9-2
			C19.8,226.9,19,226.1,17.9,226.1L17.9,226.1z"/>
	</g>
	<g>
		<ellipse fill="#C6C6C6" cx="33.9" cy="228" rx="1.7" ry="1.7"/>
		<path fill="#C6C6C6" d="M33.9,226.6c0.8,0,1.4,0.7,1.4,1.5c0,0.8-0.6,1.5-1.4,1.5c-0.8,0-1.4-0.7-1.4-1.5
			C32.5,227.2,33.1,226.6,33.9,226.6 M33.9,226.1c-1.1,0-1.9,0.9-1.9,2c0,1.1,0.9,2,1.9,2s1.9-0.9,1.9-2
			C35.9,226.9,35,226.1,33.9,226.1L33.9,226.1z"/>
	</g>
	<g>
		<ellipse fill="#C6C6C6" cx="25.9" cy="196.3" rx="1.7" ry="1.7"/>
		<path fill="#C6C6C6" d="M25.9,194.8c0.8,0,1.4,0.7,1.4,1.5c0,0.8-0.6,1.5-1.4,1.5c-0.8,0-1.4-0.7-1.4-1.5
			C24.5,195.5,25.1,194.8,25.9,194.8 M25.9,194.3c-1.1,0-1.9,0.9-1.9,2c0,1.1,0.9,2,1.9,2s1.9-0.9,1.9-2
			C27.9,195.2,27,194.3,25.9,194.3L25.9,194.3z"/>
	</g>
	<g>
		<ellipse fill="#C6C6C6" cx="25.9" cy="250.9" rx="1.7" ry="1.7"/>
		<path fill="#C6C6C6" d="M25.9,249.4c0.8,0,1.4,0.7,1.4,1.5c0,0.8-0.6,1.5-1.4,1.5c-0.8,0-1.4-0.7-1.4-1.5
			C24.5,250.1,25.1,249.4,25.9,249.4 M25.9,248.9c-1.1,0-1.9,0.9-1.9,2c0,1.1,0.9,2,1.9,2c1.1,0,1.9-0.9,1.9-2
			C27.9,249.8,27,248.9,25.9,248.9L25.9,248.9z"/>
	</g>
	<g>
		<ellipse fill="#C6C6C6" cx="25.9" cy="149.9" rx="1.7" ry="1.7"/>
		<path fill="#C6C6C6" d="M25.9,148.5c0.8,0,1.4,0.7,1.4,1.5c0,0.8-0.6,1.5-1.4,1.5c-0.8,0-1.4-0.7-1.4-1.5
			C24.5,149.1,25.1,148.5,25.9,148.5 M25.9,148c-1.1,0-1.9,0.9-1.9,2s0.9,2,1.9,2c1.1,0,1.9-0.9,1.9-2S27,148,25.9,148L25.9,148z"/>
	</g>
	<g>
		<ellipse fill="#C6C6C6" cx="25.9" cy="158.1" rx="1.7" ry="1.7"/>
		<path fill="#C6C6C6" d="M25.9,156.6c0.8,0,1.4,0.7,1.4,1.5c0,0.8-0.6,1.5-1.4,1.5c-0.8,0-1.4-0.7-1.4-1.5
			C24.5,157.2,25.1,156.6,25.9,156.6 M25.9,156.1c-1.1,0-1.9,0.9-1.9,2c0,1.1,0.9,2,1.9,2c1.1,0,1.9-0.9,1.9-2
			C27.9,157,27,156.1,25.9,156.1L25.9,156.1z"/>
	</g>
	<g>
		<ellipse fill="#C6C6C6" cx="25.9" cy="88.4" rx="1.7" ry="1.7"/>
		<path fill="#C6C6C6" d="M25.9,86.9c0.8,0,1.4,0.7,1.4,1.5c0,0.8-0.6,1.5-1.4,1.5c-0.8,0-1.4-0.7-1.4-1.5
			C24.5,87.6,25.1,86.9,25.9,86.9 M25.9,86.4c-1.1,0-1.9,0.9-1.9,2c0,1.1,0.9,2,1.9,2c1.1,0,1.9-0.9,1.9-2
			C27.9,87.3,27,86.4,25.9,86.4L25.9,86.4z"/>
	</g>
	<g>
		<ellipse fill="#C6C6C6" cx="25.9" cy="228" rx="1.7" ry="1.7"/>
		<path fill="#C6C6C6" d="M25.9,226.6c0.8,0,1.4,0.7,1.4,1.5c0,0.8-0.6,1.5-1.4,1.5c-0.8,0-1.4-0.7-1.4-1.5
			C24.5,227.2,25.1,226.6,25.9,226.6 M25.9,226.1c-1.1,0-1.9,0.9-1.9,2c0,1.1,0.9,2,1.9,2c1.1,0,1.9-0.9,1.9-2
			C27.9,226.9,27,226.1,25.9,226.1L25.9,226.1z"/>
	</g>
	<g>
		<ellipse fill="#C6C6C6" cx="25.9" cy="265.5" rx="1.7" ry="1.7"/>
		<path fill="#C6C6C6" d="M25.9,264c0.8,0,1.4,0.7,1.4,1.5c0,0.8-0.6,1.5-1.4,1.5c-0.8,0-1.4-0.7-1.4-1.5
			C24.5,264.7,25.1,264,25.9,264 M25.9,263.5c-1.1,0-1.9,0.9-1.9,2c0,1.1,0.9,2,1.9,2c1.1,0,1.9-0.9,1.9-2
			C27.9,264.4,27,263.5,25.9,263.5L25.9,263.5z"/>
	</g>
	<g>
		<ellipse fill="#C6C6C6" cx="25.9" cy="273.6" rx="1.7" ry="1.7"/>
		<path fill="#C6C6C6" d="M25.9,272.1c0.8,0,1.4,0.7,1.4,1.5c0,0.8-0.6,1.5-1.4,1.5c-0.8,0-1.4-0.7-1.4-1.5
			C24.5,272.8,25.1,272.1,25.9,272.1 M25.9,271.6c-1.1,0-1.9,0.9-1.9,2c0,1.1,0.9,2,1.9,2c1.1,0,1.9-0.9,1.9-2
			C27.9,272.5,27,271.6,25.9,271.6L25.9,271.6z"/>
	</g>
	<g>
		<ellipse fill="#C6C6C6" cx="25.9" cy="297.3" rx="1.7" ry="1.7"/>
		<path fill="#C6C6C6" d="M25.9,295.8c0.8,0,1.4,0.7,1.4,1.5c0,0.8-0.6,1.5-1.4,1.5c-0.8,0-1.4-0.7-1.4-1.5
			C24.5,296.5,25.1,295.8,25.9,295.8 M25.9,295.3c-1.1,0-1.9,0.9-1.9,2s0.9,2,1.9,2c1.1,0,1.9-0.9,1.9-2S27,295.3,25.9,295.3
			L25.9,295.3z"/>
	</g>
</g>
<g id="Layer_2">
</g>
</svg>
